Mertz-Heavy.ufo
<glyph name="exclam" format="1">
  <advance width="510"/>
  <unicode hex="0021"/>
  <outline>
    <contour>
      <point x="411" y="1241" type="line"/>
      <point x="103" y="1241" type="line"/>
      <point x="203" y="439" type="line"/>
      <point x="311" y="439" type="line"/>
    </contour>
    <component base="period"/>
  </outline>
</glyph>
<glyph name="quotedbl" format="1">
  <advance width="738"/>
  <unicode hex="0022"/>
  <outline>
    <contour>
      <point x="662" y="1536" type="line"/>
      <point x="394" y="1536" type="line"/>
      <point x="494" y="895" type="line"/>
      <point x="562" y="895" type="line"/>
    </contour>
    <contour>
      <point x="346" y="1536" type="line"/>
      <point x="78" y="1536" type="line"/>
      <point x="178" y="895" type="line"/>
      <point x="246" y="895" type="line"/>
    </contour>
  </outline>
</glyph>
<glyph name="numbersign" format="1">
  <advance width="1226"/>
  <unicode hex="0023"/>
  <outline>
    <contour>
      <point x="633" y="1241" type="line"/>
      <point x="463" y="1241" type="line"/>
      <point x="135" y="0" type="line"/>
      <point x="303" y="0" type="line"/>
    </contour>
    <contour>
      <point x="1064" y="515" type="line"/>
      <point x="114" y="515" type="line"/>
      <point x="114" y="390" type="line"/>
      <point x="1064" y="390" type="line"/>
    </contour>
    <contour>
      <point x="1114" y="824" type="line"/>
      <point x="164" y="824" type="line"/>
      <point x="164" y="699" type="line"/>
      <point x="1114" y="699" type="line"/>
    </contour>
    <contour>
      <point x="1090" y="1241" type="line"/>
      <point x="920" y="1241" type="line"/>
      <point x="592" y="0" type="line"/>
      <point x="760" y="0" type="line"/>
    </contour>
  </outline>
</glyph>
<glyph name="dollar" format="1">
  <advance width="1084"/>
  <unicode hex="0024"/>
  <outline>
    <contour>
      <point x="759" y="1381" type="line"/>
      <point x="643" y="1381" type="line"/>
      <point x="353" y="-168" type="line"/>
      <point x="469" y="-168" type="line"/>
    </contour>
    <contour>
      <point x="614" y="-33" type="curve" smooth="yes"/>
      <point x="804" y="-33"/>
      <point x="969" y="81"/>
      <point x="969" y="320" type="curve" smooth="yes"/>
      <point x="969" y="449"/>
      <point x="923" y="567"/>
      <point x="738" y="672" type="curve" smooth="yes"/>
      <point x="494" y="811" type="line" smooth="yes"/>
      <point x="431" y="847"/>
      <point x="413" y="901"/>
      <point x="413" y="932" type="curve" smooth="yes"/>
      <point x="413" y="973"/>
      <point x="441" y="1043"/>
      <point x="544" y="1043" type="curve" smooth="yes"/>
      <point x="670" y="1043"/>
      <point x="913" y="959"/>
      <point x="913" y="959" type="curve"/>
      <point x="913" y="1196" type="line" smooth="yes"/>
      <point x="913" y="1202"/>
      <point x="732" y="1277"/>
      <point x="533" y="1277" type="curve" smooth="yes"/>
      <point x="284" y="1277"/>
      <point x="118" y="1111"/>
      <point x="118" y="928" type="curve" smooth="yes"/>
      <point x="118" y="822"/>
      <point x="165" y="701"/>
      <point x="306" y="615" type="curve" smooth="yes"/>
      <point x="591" y="442" type="line" smooth="yes"/>
      <point x="685" y="385"/>
      <point x="682" y="348"/>
      <point x="682" y="316" type="curve" smooth="yes"/>
      <point x="682" y="254"/>
      <point x="648" y="195"/>
      <point x="570" y="195" type="curve" smooth="yes"/>
      <point x="434" y="195"/>
      <point x="146" y="313"/>
      <point x="145" y="313" type="curve"/>
      <point x="145" y="70" type="line"/>
      <point x="145" y="70"/>
      <point x="365" y="-33"/>
    </contour>
  </outline>
</glyph>
<glyph name="percent" format="1">
  <advance width="1126"/>
  <unicode hex="0025"/>
  <outline>
    <contour>
      <point x="1060" y="1241" type="line"/>
      <point x="797" y="1241" type="line"/>
      <point x="82" y="0" type="line"/>
      <point x="343" y="0" type="line"/>
    </contour>
    <component base="o" xScale="0.6" yScale="0.6" xOffset="32" yOffset="700"/>
    <component base="o" xScale="0.6" yScale="0.6" xOffset="862" yOffset="14"/>
  </outline>
</glyph>
<glyph name="ampersand" format="1">
  <advance width="1383"/>
  <unicode hex="0026"/>
  <outline>
    <contour>
      <point x="538" y="-33" type="curve" smooth="yes"/>
      <point x="899" y="-33"/>
      <point x="1164" y="233"/>
      <point x="1244" y="428" type="curve"/>
      <point x="1074" y="565" type="line"/>
      <point x="976" y="366"/>
      <point x="756" y="191"/>
      <point x="575" y="191" type="curve" smooth="yes"/>
      <point x="419" y="191"/>
      <point x="389" y="291"/>
      <point x="389" y="368" type="curve" smooth="yes"/>
      <point x="389" y="420"/>
      <point x="388" y="526"/>
      <point x="565" y="619" type="curve" smooth="yes"/>
      <point x="857" y="771"/>
      <point x="914" y="870"/>
      <point x="901" y="1029" type="curve" smooth="yes"/>
      <point x="891" y="1152"/>
      <point x="800" y="1272"/>
      <point x="563" y="1272" type="curve" smooth="yes"/>
      <point x="373" y="1272"/>
      <point x="149" y="1203"/>
      <point x="149" y="989" type="curve" smooth="yes"/>
      <point x="149" y="908"/>
      <point x="179" y="796"/>
      <point x="332" y="659" type="curve" smooth="yes"/>
      <point x="1111" y="-40" type="line"/>
      <point x="1277" y="119" type="line"/>
      <point x="502" y="814" type="line" smooth="yes"/>
      <point x="418" y="895"/>
      <point x="393" y="952"/>
      <point x="393" y="979" type="curve" smooth="yes"/>
      <point x="393" y="1083"/>
      <point x="504" y="1094"/>
      <point x="566" y="1094" type="curve" smooth="yes"/>
      <point x="624" y="1094"/>
      <point x="671" y="1049"/>
      <point x="671" y="1001" type="curve" smooth="yes"/>
      <point x="671" y="953"/>
      <point x="667" y="914"/>
      <point x="486" y="833" type="curve" smooth="yes"/>
      <point x="222" y="715"/>
      <point x="116" y="523"/>
      <point x="116" y="331" type="curve" smooth="yes"/>
      <point x="116" y="166"/>
      <point x="259" y="-33"/>
    </contour>
  </outline>
</glyph>
<glyph name="parenleft" format="1">
  <advance width="654"/>
  <unicode hex="0028"/>
  <outline>
    <contour>
      <point x="554" y="-81" type="curve"/>
      <point x="260" y="-81" type="line"/>
      <point x="166" y="123"/>
      <point x="119" y="383"/>
      <point x="119" y="642" type="curve" smooth="yes"/>
      <point x="119" y="900"/>
      <point x="165" y="1158"/>
      <point x="258" y="1361" type="curve"/>
      <point x="552" y="1361" type="line"/>
      <point x="457" y="1140"/>
      <point x="409" y="891"/>
      <point x="409" y="642" type="curve" smooth="yes"/>
      <point x="409" y="392"/>
      <point x="458" y="141"/>
    </contour>
  </outline>
</glyph>
<glyph name="parenright" format="1">
  <advance width="654"/>
  <unicode hex="0029"/>
  <outline>
    <contour>
      <point x="396" y="-81" type="curve"/>
      <point x="102" y="-81" type="line"/>
      <point x="197" y="140"/>
      <point x="245" y="389"/>
      <point x="245" y="638" type="curve" smooth="yes"/>
      <point x="245" y="888"/>
      <point x="196" y="1139"/>
      <point x="100" y="1361" type="curve"/>
      <point x="394" y="1361" type="line"/>
      <point x="488" y="1157"/>
      <point x="535" y="897"/>
      <point x="535" y="637" type="curve" smooth="yes"/>
      <point x="535" y="380"/>
      <point x="489" y="122"/>
    </contour>
  </outline>
</glyph>
<glyph name="asterisk" format="1">
  <advance width="1031"/>
  <unicode hex="002A"/>
  <outline>
    <contour>
      <point x="416" y="818" type="line"/>
      <point x="178" y="575" type="line"/>
      <point x="303" y="467" type="line"/>
      <point x="517" y="747" type="line"/>
      <point x="730" y="467" type="line"/>
      <point x="855" y="575" type="line"/>
      <point x="617" y="818" type="line"/>
      <point x="932" y="923" type="line"/>
      <point x="870" y="1068" type="line"/>
      <point x="577" y="929" type="line"/>
      <point x="601" y="1270" type="line"/>
      <point x="432" y="1270" type="line"/>
      <point x="456" y="929" type="line"/>
      <point x="163" y="1068" type="line"/>
      <point x="101" y="923" type="line"/>
    </contour>
  </outline>
</glyph>
<glyph name="plus" format="1">
  <advance width="892"/>
  <unicode hex="002B"/>
  <outline>
    <contour>
      <point x="102" y="464" type="line"/>
      <point x="348" y="464" type="line"/>
      <point x="348" y="218" type="line"/>
      <point x="543" y="218" type="line"/>
      <point x="543" y="464" type="line"/>
      <point x="789" y="464" type="line"/>
      <point x="789" y="659" type="line"/>
      <point x="543" y="659" type="line"/>
      <point x="543" y="905" type="line"/>
      <point x="348" y="905" type="line"/>
      <point x="348" y="659" type="line"/>
      <point x="102" y="659" type="line"/>
    </contour>
  </outline>
</glyph>
<glyph name="comma" format="1">
  <advance width="536"/>
  <unicode hex="002C"/>
  <outline>
    <contour>
      <point x="110" y="-200" type="curve"/>
      <point x="201" y="-200" type="line"/>
      <point x="370" y="-57"/>
      <point x="434" y="57"/>
      <point x="434" y="149" type="curve" smooth="yes"/>
      <point x="434" y="229"/>
      <point x="373" y="314"/>
      <point x="266" y="314" type="curve" smooth="yes"/>
      <point x="159" y="314"/>
      <point x="97" y="230"/>
      <point x="97" y="149" type="curve" smooth="yes"/>
      <point x="97" y="74"/>
      <point x="147" y="2"/>
      <point x="233" y="-13" type="curve"/>
      <point x="209" y="-77"/>
      <point x="159" y="-137"/>
    </contour>
  </outline>
</glyph>
<glyph name="hyphen" format="1">
  <advance width="902"/>
  <unicode hex="002D"/>
  <outline>
    <contour>
      <point x="794" y="689" type="line"/>
      <point x="107" y="689" type="line"/>
      <point x="107" y="441" type="line"/>
      <point x="794" y="441" type="line"/>
    </contour>
  </outline>
</glyph>
<glyph name="period" format="1">
  <advance width="535"/>
  <unicode hex="002E"/>
  <outline>
    <contour>
      <point x="266" y="-16" type="curve" smooth="yes"/>
      <point x="372" y="-16"/>
      <point x="434" y="66"/>
      <point x="434" y="149" type="curve" smooth="yes"/>
      <point x="434" y="229"/>
      <point x="373" y="314"/>
      <point x="266" y="314" type="curve" smooth="yes"/>
      <point x="159" y="314"/>
      <point x="97" y="230"/>
      <point x="97" y="149" type="curve" smooth="yes"/>
      <point x="97" y="65"/>
      <point x="160" y="-16"/>
    </contour>
  </outline>
</glyph>
<glyph name="zero" format="1">
  <advance width="1364"/>
  <unicode hex="0030"/>
  <outline>
    <contour>
      <point x="683" y="226" type="curve" smooth="yes"/>
      <point x="525" y="226"/>
      <point x="408" y="298"/>
      <point x="408" y="629" type="curve" smooth="yes"/>
      <point x="408" y="956"/>
      <point x="525" y="1017"/>
      <point x="683" y="1017" type="curve" smooth="yes"/>
      <point x="842" y="1017"/>
      <point x="959" y="955"/>
      <point x="959" y="629" type="curve" smooth="yes"/>
      <point x="959" y="298"/>
      <point x="842" y="226"/>
    </contour>
    <contour>
      <point x="683" y="-33" type="curve" smooth="yes"/>
      <point x="1086" y="-33"/>
      <point x="1252" y="206"/>
      <point x="1252" y="623" type="curve" smooth="yes"/>
      <point x="1252" y="1062"/>
      <point x="1071" y="1276"/>
      <point x="683" y="1276" type="curve" smooth="yes"/>
      <point x="295" y="1276"/>
      <point x="113" y="1062"/>
      <point x="113" y="623" type="curve" smooth="yes"/>
      <point x="113" y="206"/>
      <point x="280" y="-33"/>
    </contour>
  </outline>
</glyph>
<glyph name="one" format="1">
  <advance width="794"/>
  <unicode hex="0031"/>
  <outline>
    <contour>
      <point x="356" y="841" type="curve"/>
      <point x="356" y="0" type="line"/>
      <point x="664" y="0" type="line"/>
      <point x="664" y="1291" type="line"/>
      <point x="664" y="1291"/>
      <point x="178" y="1046"/>
      <point x="107" y="1022" type="curve"/>
      <point x="107" y="749" type="line"/>
      <point x="228" y="786"/>
      <point x="291" y="807"/>
    </contour>
  </outline>
</glyph>
<glyph name="two" format="1">
  <advance width="1089"/>
  <unicode hex="0032"/>
  <outline>
    <contour>
      <point x="570" y="672" type="curve" smooth="yes"/>
      <point x="91" y="0" type="line"/>
      <point x="958" y="0" type="line"/>
      <point x="958" y="253" type="line"/>
      <point x="612" y="253" type="line"/>
      <point x="785" y="482" type="line" smooth="yes"/>
      <point x="893" y="625"/>
      <point x="967" y="771"/>
      <point x="967" y="898" type="curve" smooth="yes"/>
      <point x="967" y="1111"/>
      <point x="830" y="1276"/>
      <point x="571" y="1276" type="curve" smooth="yes"/>
      <point x="383" y="1276"/>
      <point x="179" y="1138"/>
      <point x="179" y="1138" type="curve"/>
      <point x="274" y="923" type="line"/>
      <point x="274" y="923"/>
      <point x="427" y="1017"/>
      <point x="536" y="1017" type="curve" smooth="yes"/>
      <point x="613" y="1017"/>
      <point x="666" y="974"/>
      <point x="666" y="896" type="curve" smooth="yes"/>
      <point x="666" y="839"/>
      <point x="637" y="763"/>
    </contour>
  </outline>
</glyph>
<glyph name="three" format="1">
  <advance width="1009"/>
  <unicode hex="0033"/>
  <outline>
    <contour>
      <point x="508" y="-36" type="curve" smooth="yes"/>
      <point x="770" y="-36"/>
      <point x="933" y="118"/>
      <point x="933" y="311" type="curve" smooth="yes"/>
      <point x="933" y="490"/>
      <point x="843" y="589"/>
      <point x="693" y="656" type="curve"/>
      <point x="825" y="710"/>
      <point x="896" y="812"/>
      <point x="896" y="929" type="curve" smooth="yes"/>
      <point x="896" y="1127"/>
      <point x="737" y="1276"/>
      <point x="509" y="1276" type="curve" smooth="yes"/>
      <point x="375" y="1276"/>
      <point x="189" y="1239"/>
      <point x="79" y="1168" type="curve"/>
      <point x="150" y="952" type="line"/>
      <point x="278" y="1007"/>
      <point x="384" y="1025"/>
      <point x="452" y="1025" type="curve" smooth="yes"/>
      <point x="574" y="1025"/>
      <point x="611" y="957"/>
      <point x="611" y="901" type="curve" smooth="yes"/>
      <point x="611" y="819"/>
      <point x="518" y="738"/>
      <point x="295" y="688" type="curve"/>
      <point x="295" y="575" type="line"/>
      <point x="498" y="522"/>
      <point x="625" y="479"/>
      <point x="625" y="358" type="curve" smooth="yes"/>
      <point x="625" y="263"/>
      <point x="543" y="215"/>
      <point x="456" y="215" type="curve" smooth="yes"/>
      <point x="346" y="215"/>
      <point x="242" y="237"/>
      <point x="152" y="282" type="curve"/>
      <point x="93" y="50" type="line"/>
      <point x="93" y="50"/>
      <point x="279" y="-36"/>
    </contour>
  </outline>
</glyph>
<glyph name="four" format="1">
  <advance width="1306"/>
  <unicode hex="0034"/>
  <outline>
    <contour>
      <point x="90" y="235" type="line"/>
      <point x="701" y="235" type="line"/>
      <point x="701" y="0" type="line"/>
      <point x="1009" y="0" type="line"/>
      <point x="1009" y="235" type="line"/>
      <point x="1199" y="235" type="line"/>
      <point x="1199" y="452" type="line"/>
      <point x="1009" y="452" type="line"/>
      <point x="1009" y="1274" type="line"/>
    </contour>
    <contour>
      <point x="701" y="677" type="line"/>
      <point x="701" y="452" type="line"/>
      <point x="536" y="452" type="line"/>
    </contour>
  </outline>
</glyph>
<glyph name="five" format="1">
  <advance width="1026"/>
  <unicode hex="0035"/>
  <outline>
    <contour>
      <point x="524" y="-36" type="curve" smooth="yes"/>
      <point x="882" y="-36"/>
      <point x="956" y="197"/>
      <point x="956" y="338" type="curve" smooth="yes"/>
      <point x="956" y="616"/>
      <point x="784" y="771"/>
      <point x="559" y="771" type="curve" smooth="yes"/>
      <point x="513" y="771"/>
      <point x="450" y="755"/>
      <point x="403" y="744" type="curve"/>
      <point x="406" y="839"/>
      <point x="405" y="914"/>
      <point x="409" y="1007" type="curve"/>
      <point x="854" y="1007" type="line"/>
      <point x="878" y="1242" type="line"/>
      <point x="170" y="1242" type="line"/>
      <point x="153" y="540" type="line"/>
      <point x="347" y="480" type="line"/>
      <point x="379" y="512"/>
      <point x="443" y="536"/>
      <point x="503" y="536" type="curve" smooth="yes"/>
      <point x="585" y="536"/>
      <point x="651" y="475"/>
      <point x="651" y="378" type="curve" smooth="yes"/>
      <point x="651" y="304"/>
      <point x="604" y="228"/>
      <point x="495" y="228" type="curve" smooth="yes"/>
      <point x="364" y="228"/>
      <point x="223" y="282"/>
      <point x="153" y="322" type="curve"/>
      <point x="95" y="82" type="line"/>
      <point x="151" y="50"/>
      <point x="331" y="-36"/>
    </contour>
  </outline>
</glyph>
<glyph name="seven" format="1">
  <advance width="960"/>
  <unicode hex="0037"/>
  <outline>
    <contour>
      <point x="106" y="973" type="line"/>
      <point x="537" y="973" type="line"/>
      <point x="160" y="0" type="line"/>
      <point x="486" y="0" type="line"/>
      <point x="868" y="1020" type="line"/>
      <point x="868" y="1241" type="line"/>
      <point x="106" y="1241" type="line"/>
    </contour>
  </outline>
</glyph>
<glyph name="eight" format="1">
  <advance width="1130"/>
  <unicode hex="0038"/>
  <outline>
    <contour>
      <point x="570" y="-33" type="curve" smooth="yes"/>
      <point x="816" y="-33"/>
      <point x="1015" y="82"/>
      <point x="1015" y="306" type="curve" smooth="yes"/>
      <point x="1015" y="460"/>
      <point x="934" y="548"/>
      <point x="804" y="644" type="curve"/>
      <point x="916" y="724"/>
      <point x="992" y="829"/>
      <point x="992" y="940" type="curve" smooth="yes"/>
      <point x="992" y="1166"/>
      <point x="785" y="1278"/>
      <point x="564" y="1278" type="curve" smooth="yes"/>
      <point x="323" y="1278"/>
      <point x="141" y="1128"/>
      <point x="141" y="940" type="curve" smooth="yes"/>
      <point x="141" y="829"/>
      <point x="218" y="718"/>
      <point x="332" y="644" type="curve"/>
      <point x="200" y="557"/>
      <point x="117" y="455"/>
      <point x="117" y="305" type="curve" smooth="yes"/>
      <point x="117" y="81"/>
      <point x="333" y="-33"/>
    </contour>
    <contour>
      <point x="565" y="718" type="curve"/>
      <point x="453" y="750"/>
      <point x="381" y="832"/>
      <point x="381" y="930" type="curve" smooth="yes"/>
      <point x="381" y="1014"/>
      <point x="461" y="1068"/>
      <point x="565" y="1068" type="curve" smooth="yes"/>
      <point x="669" y="1068"/>
      <point x="748" y="1014"/>
      <point x="748" y="930" type="curve" smooth="yes"/>
      <point x="748" y="847"/>
      <point x="683" y="752"/>
    </contour>
    <contour>
      <point x="565" y="177" type="curve" smooth="yes"/>
      <point x="452" y="177"/>
      <point x="367" y="235"/>
      <point x="367" y="342" type="curve" smooth="yes"/>
      <point x="367" y="439"/>
      <point x="426" y="526"/>
      <point x="566" y="580" type="curve"/>
      <point x="688" y="542"/>
      <point x="768" y="435"/>
      <point x="768" y="347" type="curve" smooth="yes"/>
      <point x="768" y="230"/>
      <point x="679" y="177"/>
    </contour>
  </outline>
</glyph>
<glyph name="nine" format="1">
  <advance width="1157"/>
  <unicode hex="0039"/>
  <outline>
    <contour>
      <point x="583" y="468" type="curve"/>
      <point x="212" y="0" type="line"/>
      <point x="535" y="0" type="line"/>
      <point x="535" y="0"/>
      <point x="792" y="312"/>
      <point x="869" y="416" type="curve" smooth="yes"/>
      <point x="991" y="579"/>
      <point x="1055" y="695"/>
      <point x="1055" y="859" type="curve" smooth="yes"/>
      <point x="1055" y="1091"/>
      <point x="850" y="1276"/>
      <point x="580" y="1276" type="curve" smooth="yes"/>
      <point x="324" y="1276"/>
      <point x="109" y="1122"/>
      <point x="109" y="861" type="curve" smooth="yes"/>
      <point x="109" y="619"/>
      <point x="300" y="462"/>
      <point x="514" y="462" type="curve" smooth="yes"/>
      <point x="534" y="462"/>
      <point x="563" y="465"/>
    </contour>
    <contour>
      <point x="580" y="682" type="curve" smooth="yes"/>
      <point x="453" y="682"/>
      <point x="390" y="770"/>
      <point x="390" y="860" type="curve" smooth="yes"/>
      <point x="390" y="951"/>
      <point x="456" y="1043"/>
      <point x="586" y="1043" type="curve" smooth="yes"/>
      <point x="717" y="1043"/>
      <point x="780" y="956"/>
      <point x="780" y="867" type="curve" smooth="yes"/>
      <point x="780" y="775"/>
      <point x="712" y="682"/>
    </contour>
  </outline>
</glyph>
<glyph name="less" format="1">
  <advance width="1123"/>
  <unicode hex="003C"/>
  <outline>
    <contour>
      <point x="996" y="924" type="line"/>
      <point x="93" y="425" type="line"/>
      <point x="996" y="-74" type="line"/>
      <point x="996" y="236" type="line"/>
      <point x="584" y="425" type="line"/>
      <point x="996" y="617" type="line"/>
    </contour>
  </outline>
</glyph>
<glyph name="equal" format="1">
  <advance width="1010"/>
  <unicode hex="003D"/>
  <outline>
    <contour>
      <point x="893" y="459" type="line"/>
      <point x="118" y="459" type="line"/>
      <point x="118" y="291" type="line"/>
      <point x="893" y="291" type="line"/>
    </contour>
    <contour>
      <point x="893" y="817" type="line"/>
      <point x="118" y="817" type="line"/>
      <point x="118" y="649" type="line"/>
      <point x="893" y="649" type="line"/>
    </contour>
  </outline>
</glyph>
<glyph name="greater" format="1">
  <advance width="1123"/>
  <unicode hex="003E"/>
  <outline>
    <contour>
      <point x="537" y="425" type="line"/>
      <point x="125" y="233" type="line"/>
      <point x="125" y="-74" type="line"/>
      <point x="1028" y="425" type="line"/>
      <point x="125" y="924" type="line"/>
      <point x="125" y="614" type="line"/>
    </contour>
  </outline>
</glyph>
<glyph name="question" format="1">
  <advance width="953"/>
  <unicode hex="003F"/>
  <outline>
    <contour>
      <point x="230" y="413" type="curve"/>
      <point x="441" y="413" type="line"/>
      <point x="766" y="667"/>
      <point x="853" y="815"/>
      <point x="853" y="949" type="curve" smooth="yes"/>
      <point x="853" y="1144"/>
      <point x="715" y="1276"/>
      <point x="465" y="1276" type="curve" smooth="yes"/>
      <point x="277" y="1276"/>
      <point x="86" y="1148"/>
      <point x="86" y="1148" type="curve"/>
      <point x="181" y="933" type="line"/>
      <point x="181" y="933"/>
      <point x="328" y="1017"/>
      <point x="430" y="1017" type="curve" smooth="yes"/>
      <point x="506" y="1017"/>
      <point x="551" y="973"/>
      <point x="551" y="895" type="curve" smooth="yes"/>
      <point x="551" y="808"/>
      <point x="500" y="723"/>
    </contour>
    <component base="period" xOffset="156"/>
  </outline>
</glyph>
<glyph name="at" format="1">
  <advance width="1622"/>
  <unicode hex="0040"/>
  <outline>
    <contour>
      <point x="832" y="-114" type="curve" smooth="yes"/>
      <point x="1084" y="-114"/>
      <point x="1260" y="-27"/>
      <point x="1354" y="28" type="curve"/>
      <point x="1316" y="170" type="line"/>
      <point x="1225" y="116"/>
      <point x="1046" y="45"/>
      <point x="845" y="45" type="curve" smooth="yes"/>
      <point x="539" y="45"/>
      <point x="301" y="197"/>
      <point x="301" y="540" type="curve" smooth="yes"/>
      <point x="301" y="777"/>
      <point x="449" y="1085"/>
      <point x="895" y="1085" type="curve" smooth="yes"/>
      <point x="1147" y="1085"/>
      <point x="1337" y="913"/>
      <point x="1337" y="624" type="curve" smooth="yes"/>
      <point x="1337" y="404"/>
      <point x="1254" y="342"/>
      <point x="1189" y="342" type="curve" smooth="yes"/>
      <point x="1107" y="342"/>
      <point x="1110" y="448"/>
      <point x="1110" y="521" type="curve" smooth="yes"/>
      <point x="1110" y="949" type="line"/>
      <point x="1068" y="953"/>
      <point x="1011" y="955"/>
      <point x="975" y="955" type="curve" smooth="yes"/>
      <point x="509" y="955"/>
      <point x="456" y="637"/>
      <point x="462" y="501" type="curve" smooth="yes"/>
      <point x="471" y="306"/>
      <point x="604" y="205"/>
      <point x="730" y="205" type="curve" smooth="yes"/>
      <point x="825" y="205"/>
      <point x="928" y="262"/>
      <point x="978" y="387" type="curve"/>
      <point x="1001" y="257"/>
      <point x="1089" y="204"/>
      <point x="1176" y="204" type="curve" smooth="yes"/>
      <point x="1329" y="204"/>
      <point x="1514" y="368"/>
      <point x="1514" y="650" type="curve" smooth="yes"/>
      <point x="1514" y="952"/>
      <point x="1281" y="1240"/>
      <point x="874" y="1240" type="curve" smooth="yes"/>
      <point x="344" y="1240"/>
      <point x="107" y="857"/>
      <point x="107" y="540" type="curve" smooth="yes"/>
      <point x="107" y="128"/>
      <point x="440" y="-114"/>
    </contour>
    <contour>
      <point x="780" y="356" type="curve" smooth="yes"/>
      <point x="707" y="348"/>
      <point x="650" y="389"/>
      <point x="642" y="488" type="curve" smooth="yes"/>
      <point x="632" y="618"/>
      <point x="689" y="807"/>
      <point x="950" y="807" type="curve"/>
      <point x="950" y="493" type="line"/>
      <point x="925" y="424"/>
      <point x="845" y="363"/>
    </contour>
  </outline>
</glyph>
<glyph name="A" format="1">
  <advance width="1386"/>
  <unicode hex="0041"/>
  <outline>
    <contour>
      <point x="1298" y="0" type="line"/>
      <point x="678" y="1311" type="line"/>
      <point x="81" y="0" type="line"/>
      <point x="406" y="0" type="line"/>
      <point x="527" y="290" type="line"/>
      <point x="847" y="290" type="line"/>
      <point x="979" y="0" type="line"/>
    </contour>
    <contour>
      <point x="681" y="737" type="line"/>
      <point x="792" y="474" type="line"/>
      <point x="580" y="474" type="line"/>
    </contour>
    <contour>
      <point x="639" y="1241" type="move" name="top"/>
    </contour>
    <contour>
      <point x="1153" y="10" type="move" name="ogonek"/>
    </contour>
  </outline>
</glyph>
<glyph name="B" format="1">
  <advance width="1116"/>
  <unicode hex="0042"/>
  <outline>
    <contour>
      <point x="138" y="0" type="line"/>
      <point x="534" y="0" type="line" smooth="yes"/>
      <point x="808" y="0"/>
      <point x="1030" y="120"/>
      <point x="1030" y="380" type="curve" smooth="yes"/>
      <point x="1030" y="564.312"/>
      <point x="928.366" y="640.237"/>
      <point x="812.096" y="700.997" type="curve"/>
      <point x="892.172" y="736.304"/>
      <point x="963" y="803.582"/>
      <point x="963" y="920" type="curve" smooth="yes"/>
      <point x="963" y="1140"/>
      <point x="796.5" y="1241"/>
      <point x="504" y="1241" type="curve" smooth="yes"/>
      <point x="138" y="1241" type="line"/>
    </contour>
    <contour>
      <point x="438" y="194" type="line"/>
      <point x="438" y="597" type="line"/>
      <point x="515" y="597" type="line" smooth="yes"/>
      <point x="655" y="597"/>
      <point x="746" y="508"/>
      <point x="746" y="393" type="curve" smooth="yes"/>
      <point x="746" y="290"/>
      <point x="678" y="194"/>
      <point x="508" y="194" type="curve" smooth="yes"/>
    </contour>
    <contour>
      <point x="440" y="761" type="line"/>
      <point x="440" y="1048" type="line"/>
      <point x="479" y="1048" type="line" smooth="yes"/>
      <point x="649.5" y="1048"/>
      <point x="709" y="1004"/>
      <point x="709" y="901" type="curve" smooth="yes"/>
      <point x="709" y="776"/>
      <point x="553.5" y="761"/>
      <point x="464" y="761" type="curve" smooth="yes"/>
    </contour>
  </outline>
</glyph>
<glyph name="C" format="1">
  <advance width="1329"/>
  <unicode hex="0043"/>
  <outline>
    <contour>
      <point x="644" y="1241" type="move" name="top"/>
    </contour>
    <contour>
      <point x="644" y="0" type="move" name="bottom"/>
    </contour>
    <contour>
      <point x="783" y="-33" type="curve" smooth="yes"/>
      <point x="1011" y="-33"/>
      <point x="1204" y="68"/>
      <point x="1204" y="68" type="curve"/>
      <point x="1204" y="355" type="line"/>
      <point x="1095" y="276"/>
      <point x="951" y="228"/>
      <point x="814" y="228" type="curve" smooth="yes"/>
      <point x="605" y="228"/>
      <point x="418" y="339"/>
      <point x="418" y="622" type="curve" smooth="yes"/>
      <point x="418" y="906"/>
      <point x="605" y="1014"/>
      <point x="814" y="1014" type="curve" smooth="yes"/>
      <point x="951" y="1014"/>
      <point x="1095" y="966"/>
      <point x="1204" y="887" type="curve"/>
      <point x="1204" y="1174" type="line"/>
      <point x="1204" y="1174"/>
      <point x="1011" y="1275"/>
      <point x="783" y="1275" type="curve" smooth="yes"/>
      <point x="395" y="1275"/>
      <point x="108" y="1026"/>
      <point x="108" y="622" type="curve" smooth="yes"/>
      <point x="108" y="219"/>
      <point x="395" y="-33"/>
    </contour>
  </outline>
</glyph>
<glyph name="D" format="1">
  <advance width="1402"/>
  <unicode hex="0044"/>
  <outline>
    <contour>
      <point x="138" y="0" type="line"/>
      <point x="654" y="0" type="line" smooth="yes"/>
      <point x="1071" y="0"/>
      <point x="1307" y="296"/>
      <point x="1307" y="626" type="curve" smooth="yes"/>
      <point x="1307" y="984"/>
      <point x="1087" y="1241"/>
      <point x="681" y="1241" type="curve" smooth="yes"/>
      <point x="138" y="1241" type="line"/>
    </contour>
    <contour>
      <point x="432" y="229" type="line"/>
      <point x="432" y="1013" type="line"/>
      <point x="660" y="1013" type="line" smooth="yes"/>
      <point x="884" y="1013"/>
      <point x="1000.3" y="823.5"/>
      <point x="1000.3" y="623" type="curve" smooth="yes"/>
      <point x="1000.3" y="388.5"/>
      <point x="881" y="229"/>
      <point x="619" y="229" type="curve" smooth="yes"/>
    </contour>
    <contour>
      <point x="701" y="1241" type="move" name="top"/>
    </contour>
    <contour>
      <point x="701" y="621" type="move" name="center"/>
    </contour>
  </outline>
</glyph>
<glyph name="E" format="1">
  <advance width="974"/>
  <unicode hex="0045"/>
  <outline>
    <contour>
      <point x="139" y="0" type="line"/>
      <point x="872" y="0" type="line"/>
      <point x="872" y="266" type="line"/>
      <point x="431" y="266" type="line"/>
      <point x="431" y="512" type="line"/>
      <point x="796" y="512" type="line"/>
      <point x="796" y="764" type="line"/>
      <point x="433" y="764" type="line"/>
      <point x="433" y="985" type="line"/>
      <point x="862" y="985" type="line"/>
      <point x="862" y="1241" type="line"/>
      <point x="139" y="1241" type="line"/>
    </contour>
    <contour>
      <point x="488" y="1241" type="move" name="top"/>
    </contour>
    <contour>
      <point x="488" y="0" type="move" name="bottom"/>
    </contour>
    <contour>
      <point x="877" y="10" type="move" name="ogonek"/>
    </contour>
  </outline>
</glyph>
<glyph name="F" format="1">
  <advance width="955"/>
  <unicode hex="0046"/>
  <outline>
    <contour>
      <point x="854" y="1241" type="line"/>
      <point x="131" y="1241" type="line"/>
      <point x="131" y="0" type="line"/>
      <point x="423" y="0" type="line"/>
      <point x="423" y="495" type="line"/>
      <point x="788" y="495" type="line"/>
      <point x="788" y="747" type="line"/>
      <point x="425" y="747" type="line"/>
      <point x="425" y="985" type="line"/>
      <point x="854" y="985" type="line"/>
    </contour>
  </outline>
</glyph>
<glyph name="G" format="1">
  <advance width="1460"/>
  <unicode hex="0047"/>
  <outline>
    <contour>
      <point x="708" y="1241" type="move" name="top"/>
    </contour>
    <contour>
      <point x="708" y="0" type="move" name="bottom"/>
    </contour>
    <contour>
      <point x="782" y="-33" type="curve" smooth="yes"/>
      <point x="1045" y="-33"/>
      <point x="1213" y="39"/>
      <point x="1339" y="116" type="curve"/>
      <point x="1339" y="717" type="line"/>
      <point x="782" y="717" type="line"/>
      <point x="782" y="478" type="line"/>
      <point x="1052" y="478" type="line"/>
      <point x="1052" y="274" type="line"/>
      <point x="976" y="244"/>
      <point x="893" y="228"/>
      <point x="813" y="228" type="curve" smooth="yes"/>
      <point x="604" y="228"/>
      <point x="417" y="339"/>
      <point x="417" y="622" type="curve" smooth="yes"/>
      <point x="417" y="906"/>
      <point x="624" y="1014"/>
      <point x="833" y="1014" type="curve" smooth="yes"/>
      <point x="970" y="1014"/>
      <point x="1114" y="966"/>
      <point x="1223" y="887" type="curve"/>
      <point x="1223" y="1174" type="line"/>
      <point x="1223" y="1174"/>
      <point x="1030" y="1275"/>
      <point x="802" y="1275" type="curve" smooth="yes"/>
      <point x="414" y="1275"/>
      <point x="107" y="1026"/>
      <point x="107" y="622" type="curve" smooth="yes"/>
      <point x="107" y="219"/>
      <point x="394" y="-33"/>
    </contour>
  </outline>
</glyph>
<glyph name="H" format="1">
  <advance width="1360"/>
  <unicode hex="0048"/>
  <outline>
    <contour>
      <point x="139" y="0" type="line"/>
      <point x="447" y="0" type="line"/>
      <point x="447" y="525" type="line"/>
      <point x="913" y="525" type="line"/>
      <point x="913" y="0" type="line"/>
      <point x="1221" y="0" type="line"/>
      <point x="1221" y="1241" type="line"/>
      <point x="913" y="1241" type="line"/>
      <point x="913" y="762" type="line"/>
      <point x="447" y="762" type="line"/>
      <point x="447" y="1241" type="line"/>
      <point x="139" y="1241" type="line"/>
    </contour>
    <contour>
      <point x="705" y="1241" type="move" name="top"/>
    </contour>
    <contour>
      <point x="705" y="621" type="move" name="center"/>
    </contour>
  </outline>
</glyph>
<glyph name="I" format="1">
  <advance width="569"/>
  <unicode hex="0049"/>
  <outline>
    <contour>
      <point x="293" y="1241" type="move" name="top"/>
    </contour>
    <contour>
      <point x="527" y="10" type="move" name="ogonek"/>
    </contour>
    <contour>
      <point x="439" y="1241" type="line"/>
      <point x="131" y="1241" type="line"/>
      <point x="131" y="0" type="line"/>
      <point x="439" y="0" type="line"/>
    </contour>
  </outline>
</glyph>
<glyph name="J" format="1">
  <advance width="997"/>
  <unicode hex="004A"/>
  <outline>
    <contour>
      <point x="494" y="1241" type="move" name="top"/>
    </contour>
    <contour>
      <point x="389" y="-30" type="curve" smooth="yes"/>
      <point x="718" y="-30"/>
      <point x="876" y="146"/>
      <point x="876" y="492" type="curve" smooth="yes"/>
      <point x="876" y="1241" type="line"/>
      <point x="584" y="1241" type="line"/>
      <point x="584" y="505" type="line" smooth="yes"/>
      <point x="584" y="298"/>
      <point x="519" y="202"/>
      <point x="358" y="202" type="curve" smooth="yes"/>
      <point x="224" y="202"/>
      <point x="99" y="288"/>
      <point x="99" y="288" type="curve"/>
      <point x="99" y="40" type="line"/>
      <point x="99" y="40"/>
      <point x="177" y="-30"/>
    </contour>
  </outline>
</glyph>
<glyph name="K" format="1">
  <advance width="1318"/>
  <unicode hex="004B"/>
  <outline>
    <contour>
      <point x="633" y="1241" type="move" name="top"/>
    </contour>
    <contour>
      <point x="633" y="0" type="move" name="bottom"/>
    </contour>
    <contour>
      <point x="431" y="1242" type="line"/>
      <point x="131" y="1242" type="line"/>
      <point x="131" y="0" type="line"/>
      <point x="433" y="0" type="line"/>
      <point x="433" y="569" type="line"/>
      <point x="859" y="0" type="line"/>
      <point x="1224" y="0" type="line"/>
      <point x="738" y="635" type="line"/>
      <point x="1198" y="1241" type="line"/>
      <point x="844" y="1241" type="line"/>
      <point x="431" y="695" type="line"/>
    </contour>
  </outline>
</glyph>
<glyph name="L" format="1">
  <advance width="1030"/>
  <unicode hex="004C"/>
  <outline>
    <contour>
      <point x="505" y="1241" type="move" name="top"/>
    </contour>
    <contour>
      <point x="505" y="0" type="move" name="bottom"/>
    </contour>
    <contour>
      <point x="439" y="1241" type="line"/>
      <point x="131" y="1241" type="line"/>
      <point x="131" y="0" type="line"/>
      <point x="924" y="0" type="line"/>
      <point x="924" y="268" type="line"/>
      <point x="439" y="268" type="line"/>
    </contour>
  </outline>
</glyph>
<glyph name="M" format="1">
  <advance width="1725"/>
  <unicode hex="004D"/>
  <outline>
    <contour>
      <point x="384" y="0" type="line"/>
      <point x="477" y="577" type="line"/>
      <point x="860" y="-27" type="line"/>
      <point x="1243" y="577" type="line"/>
      <point x="1335" y="0" type="line"/>
      <point x="1619" y="0" type="line"/>
      <point x="1394" y="1311" type="line"/>
      <point x="860" y="449" type="line"/>
      <point x="325" y="1311" type="line"/>
      <point x="100" y="0" type="line"/>
    </contour>
  </outline>
</glyph>
<glyph name="N" format="1">
  <advance width="1327"/>
  <unicode hex="004E"/>
  <outline>
    <contour>
      <point x="439" y="0" type="line"/>
      <point x="439" y="643" type="line"/>
      <point x="1196" y="-58" type="line"/>
      <point x="1196" y="1241" type="line"/>
      <point x="888" y="1241" type="line"/>
      <point x="888" y="603" type="line"/>
      <point x="131" y="1311" type="line"/>
      <point x="131" y="0" type="line"/>
    </contour>
    <contour>
      <point x="673" y="1241" type="move" name="top"/>
    </contour>
    <contour>
      <point x="673" y="0" type="move" name="bottom"/>
    </contour>
  </outline>
</glyph>
<glyph name="O" format="1">
  <advance width="1500"/>
  <unicode hex="004F"/>
  <outline>
    <contour>
      <point x="749" y="226" type="curve" smooth="yes"/>
      <point x="572" y="226"/>
      <point x="395" y="362"/>
      <point x="395" y="620" type="curve" smooth="yes"/>
      <point x="395" y="879"/>
      <point x="572" y="1017"/>
      <point x="750" y="1017" type="curve" smooth="yes"/>
      <point x="927" y="1017"/>
      <point x="1105" y="879"/>
      <point x="1105" y="619" type="curve" smooth="yes"/>
      <point x="1105" y="363"/>
      <point x="927" y="226"/>
    </contour>
    <contour>
      <point x="750" y="-33" type="curve" smooth="yes"/>
      <point x="1082" y="-33"/>
      <point x="1415" y="185"/>
      <point x="1415" y="624" type="curve" smooth="yes"/>
      <point x="1415" y="1058"/>
      <point x="1082" y="1276"/>
      <point x="749" y="1276" type="curve" smooth="yes"/>
      <point x="417" y="1276"/>
      <point x="85" y="1058"/>
      <point x="85" y="621" type="curve" smooth="yes"/>
      <point x="85" y="185"/>
      <point x="417" y="-33"/>
    </contour>
    <contour>
      <point x="761" y="1241" type="move" name="top"/>
    </contour>
  </outline>
</glyph>
<glyph name="P" format="1">
  <advance width="1063"/>
  <unicode hex="0050"/>
  <outline>
    <contour>
      <point x="138" y="0" type="line"/>
      <point x="440" y="0" type="line"/>
      <point x="440" y="494.989" type="line"/>
      <point x="457.416" y="494.989" type="line" smooth="yes"/>
      <point x="612.785" y="494.989"/>
      <point x="976" y="501.837"/>
      <point x="976" y="862" type="curve" smooth="yes"/>
      <point x="976" y="1122"/>
      <point x="778.5" y="1242"/>
      <point x="504" y="1242" type="curve" smooth="yes"/>
      <point x="138" y="1242" type="line"/>
    </contour>
    <contour>
      <point x="438" y="653" type="line"/>
      <point x="438" y="1048" type="line"/>
      <point x="458" y="1048" type="line" smooth="yes"/>
      <point x="628.5" y="1048"/>
      <point x="692" y="960"/>
      <point x="692" y="857" type="curve" smooth="yes"/>
      <point x="692" y="742"/>
      <point x="601.5" y="653"/>
      <point x="462" y="653" type="curve" smooth="yes"/>
    </contour>
  </outline>
</glyph>
<glyph name="Q" format="1">
  <advance width="1499"/>
  <unicode hex="0051"/>
  <outline>
    <contour>
      <point x="1271" y="-202" type="line"/>
      <point x="1450" y="-64" type="line"/>
      <point x="884" y="449" type="line"/>
      <point x="793" y="358" type="line"/>
    </contour>
    <component base="O"/>
  </outline>
</glyph>
<glyph name="R" format="1">
  <advance width="1219"/>
  <unicode hex="0052"/>
  <outline>
    <contour>
      <point x="497" y="1242" type="curve" smooth="yes"/>
      <point x="131" y="1242" type="line"/>
      <point x="131" y="0" type="line"/>
      <point x="433" y="0" type="line"/>
      <point x="433" y="522" type="line"/>
      <point x="435" y="522" type="line"/>
      <point x="785" y="0" type="line"/>
      <point x="1129" y="0" type="line"/>
      <point x="713" y="574" type="line"/>
      <point x="883" y="618"/>
      <point x="969" y="741"/>
      <point x="969" y="878" type="curve" smooth="yes"/>
      <point x="969" y="1138"/>
      <point x="749" y="1242"/>
    </contour>
    <contour>
      <point x="455" y="675" type="curve" smooth="yes"/>
      <point x="431" y="675" type="line"/>
      <point x="431" y="1048" type="line"/>
      <point x="451" y="1048" type="line" smooth="yes"/>
      <point x="606" y="1048"/>
      <point x="685" y="976"/>
      <point x="685" y="873" type="curve" smooth="yes"/>
      <point x="685" y="758"/>
      <point x="574" y="675"/>
    </contour>
    <contour>
      <point x="579" y="1241" type="move" name="top"/>
    </contour>
    <contour>
      <point x="579" y="0" type="move" name="bottom"/>
    </contour>
  </outline>
</glyph>
<glyph name="S" format="1">
  <advance width="1012"/>
  <unicode hex="0053"/>
  <outline>
    <contour>
      <point x="478" y="1241" type="move" name="top"/>
    </contour>
    <contour>
      <point x="478" y="0" type="move" name="bottom"/>
    </contour>
    <contour>
      <point x="543" y="-33" type="curve" smooth="yes"/>
      <point x="733" y="-33"/>
      <point x="898" y="81"/>
      <point x="898" y="320" type="curve" smooth="yes"/>
      <point x="898" y="449"/>
      <point x="828" y="557"/>
      <point x="677" y="672" type="curve" smooth="yes"/>
      <point x="494" y="811" type="line" smooth="yes"/>
      <point x="437" y="855"/>
      <point x="413" y="901"/>
      <point x="413" y="932" type="curve" smooth="yes"/>
      <point x="413" y="973"/>
      <point x="431" y="1026"/>
      <point x="534" y="1026" type="curve" smooth="yes"/>
      <point x="660" y="1026"/>
      <point x="843" y="933"/>
      <point x="843" y="933" type="curve"/>
      <point x="843" y="1187" type="line" smooth="yes"/>
      <point x="843" y="1193"/>
      <point x="692" y="1277"/>
      <point x="493" y="1277" type="curve" smooth="yes"/>
      <point x="244" y="1277"/>
      <point x="118" y="1108"/>
      <point x="118" y="925" type="curve" smooth="yes"/>
      <point x="118" y="819"/>
      <point x="177" y="696"/>
      <point x="286" y="615" type="curve" smooth="yes"/>
      <point x="520" y="442" type="line" smooth="yes"/>
      <point x="609" y="377"/>
      <point x="611" y="348"/>
      <point x="611" y="316" type="curve" smooth="yes"/>
      <point x="611" y="254"/>
      <point x="577" y="217"/>
      <point x="499" y="217" type="curve" smooth="yes"/>
      <point x="363" y="217"/>
      <point x="146" y="355"/>
      <point x="145" y="355" type="curve"/>
      <point x="145" y="90" type="line"/>
      <point x="145" y="90"/>
      <point x="294" y="-33"/>
    </contour>
  </outline>
</glyph>
<glyph name="T" format="1">
  <advance width="1219"/>
  <unicode hex="0054"/>
  <outline>
    <contour>
      <point x="93" y="973" type="line"/>
      <point x="458" y="973" type="line"/>
      <point x="458" y="0" type="line"/>
      <point x="766" y="0" type="line"/>
      <point x="766" y="973" type="line"/>
      <point x="1131" y="973" type="line"/>
      <point x="1131" y="1241" type="line"/>
      <point x="93" y="1241" type="line"/>
    </contour>
    <contour>
      <point x="565" y="1241" type="move" name="top"/>
    </contour>
    <contour>
      <point x="565" y="0" type="move" name="bottom"/>
    </contour>
    <contour>
      <point x="565" y="621" type="move" name="center"/>
    </contour>
  </outline>
</glyph>
<glyph name="U" format="1">
  <advance width="1381"/>
  <unicode hex="0055"/>
  <outline>
    <contour>
      <point x="693" y="-33" type="curve" smooth="yes"/>
      <point x="1010" y="-33"/>
      <point x="1261" y="142"/>
      <point x="1261" y="493" type="curve" smooth="yes"/>
      <point x="1261" y="1241" type="line"/>
      <point x="969" y="1241" type="line"/>
      <point x="969" y="500" type="line" smooth="yes"/>
      <point x="969" y="293"/>
      <point x="854" y="202"/>
      <point x="693" y="202" type="curve" smooth="yes"/>
      <point x="532" y="202"/>
      <point x="417" y="293"/>
      <point x="417" y="500" type="curve" smooth="yes"/>
      <point x="417" y="1241" type="line"/>
      <point x="125" y="1241" type="line"/>
      <point x="125" y="493" type="line" smooth="yes"/>
      <point x="125" y="142"/>
      <point x="376" y="-33"/>
    </contour>
    <contour>
      <point x="710" y="1241" type="move" name="top"/>
    </contour>
    <contour>
      <point x="1271" y="10" type="move" name="ogonek"/>
    </contour>
  </outline>
</glyph>
<glyph name="V" format="1">
  <advance width="1351"/>
  <unicode hex="0056"/>
  <outline>
    <contour>
      <point x="377" y="1241" type="line"/>
      <point x="68" y="1241" type="line"/>
      <point x="688" y="-58" type="line"/>
      <point x="1285" y="1241" type="line"/>
      <point x="970" y="1241" type="line"/>
      <point x="685" y="556" type="line"/>
    </contour>
  </outline>
</glyph>
<glyph name="W" format="1">
  <advance width="1850"/>
  <unicode hex="0057"/>
  <outline>
    <contour>
      <point x="879" y="1241" type="move" name="top"/>
    </contour>
    <contour>
      <point x="370" y="1241" type="line"/>
      <point x="71" y="1241" type="line"/>
      <point x="611" y="-58" type="line"/>
      <point x="932" y="655" type="line"/>
      <point x="1264" y="-58" type="line"/>
      <point x="1781" y="1241" type="line"/>
      <point x="1476" y="1241" type="line"/>
      <point x="1241" y="624" type="line"/>
      <point x="923" y="1310" type="line"/>
      <point x="628" y="624" type="line"/>
    </contour>
  </outline>
</glyph>
<glyph name="X" format="1">
  <advance width="1439"/>
  <unicode hex="0058"/>
  <outline>
    <contour>
      <point x="1060" y="0" type="line"/>
      <point x="1422" y="0" type="line"/>
      <point x="374" y="1241" type="line"/>
      <point x="21" y="1241" type="line"/>
    </contour>
    <contour>
      <point x="17" y="0" type="line"/>
      <point x="389" y="0" type="line"/>
      <point x="1370" y="1241" type="line"/>
      <point x="1003" y="1241" type="line"/>
    </contour>
  </outline>
</glyph>
<glyph name="Y" format="1">
  <advance width="1343"/>
  <unicode hex="0059"/>
  <outline>
    <contour>
      <point x="630" y="1241" type="move" name="top"/>
    </contour>
    <contour>
      <point x="64" y="1241" type="line"/>
      <point x="526" y="463" type="line"/>
      <point x="526" y="0" type="line"/>
      <point x="834" y="0" type="line"/>
      <point x="834" y="459" type="line"/>
      <point x="1281" y="1241" type="line"/>
      <point x="966" y="1241" type="line"/>
      <point x="681" y="707" type="line"/>
      <point x="373" y="1241" type="line"/>
    </contour>
  </outline>
</glyph>
<glyph name="Z" format="1">
  <advance width="1146"/>
  <unicode hex="005A"/>
  <outline>
    <contour>
      <point x="530" y="1241" type="move" name="top"/>
    </contour>
    <contour>
      <point x="134" y="973" type="line"/>
      <point x="586" y="973" type="line"/>
      <point x="109" y="0" type="line"/>
      <point x="1011" y="0" type="line"/>
      <point x="1011" y="268" type="line"/>
      <point x="570" y="268" type="line"/>
      <point x="1038" y="1241" type="line"/>
      <point x="134" y="1241" type="line"/>
    </contour>
  </outline>
</glyph>
<glyph name="bracketleft" format="1">
  <advance width="810"/>
  <unicode hex="005B"/>
  <outline>
    <contour>
      <point x="693" y="1241" type="line"/>
      <point x="131" y="1241" type="line"/>
      <point x="131" y="0" type="line"/>
      <point x="693" y="0" type="line"/>
      <point x="693" y="216" type="line"/>
      <point x="439" y="216" type="line"/>
      <point x="439" y="1025" type="line"/>
      <point x="693" y="1025" type="line"/>
    </contour>
  </outline>
</glyph>
<glyph name="backslash" format="1">
  <advance width="0"/>
  <unicode hex="005C"/>
  <outline>
    <contour>
      <point x="137" y="0" type="line"/>
      <point x="398" y="0" type="line"/>
      <point x="945" y="1241" type="line"/>
      <point x="682" y="1241" type="line"/>
    </contour>
  </outline>
</glyph>
<glyph name="bracketright" format="1">
  <advance width="811"/>
  <unicode hex="005D"/>
  <outline>
    <contour>
      <point x="373" y="216" type="line"/>
      <point x="119" y="216" type="line"/>
      <point x="119" y="0" type="line"/>
      <point x="681" y="0" type="line"/>
      <point x="681" y="1241" type="line"/>
      <point x="119" y="1241" type="line"/>
      <point x="119" y="1025" type="line"/>
      <point x="373" y="1025" type="line"/>
    </contour>
  </outline>
</glyph>
<glyph name="underscore" format="1">
  <advance width="1009"/>
  <unicode hex="005F"/>
  <outline>
    <contour>
      <point x="138" y="-249" type="line"/>
      <point x="931" y="-249" type="line"/>
      <point x="931" y="-1" type="line"/>
      <point x="138" y="-1" type="line"/>
    </contour>
  </outline>
</glyph>
<glyph name="grave" format="1">
  <advance width="526"/>
  <unicode hex="0060"/>
  <outline>
    <contour>
      <point x="426" y="90" type="curve" smooth="yes"/>
      <point x="413" y="90"/>
      <point x="399" y="96"/>
      <point x="386" y="110" type="curve" smooth="yes"/>
      <point x="127" y="388" type="line" smooth="yes"/>
      <point x="93" y="425"/>
      <point x="78" y="462"/>
      <point x="78" y="494" type="curve" smooth="yes"/>
      <point x="78" y="551"/>
      <point x="122" y="593"/>
      <point x="173" y="593" type="curve" smooth="yes"/>
      <point x="215" y="593"/>
      <point x="264" y="564"/>
      <point x="298" y="492" type="curve" smooth="yes"/>
      <point x="455" y="161" type="line" smooth="yes"/>
      <point x="460" y="150"/>
      <point x="462" y="139"/>
      <point x="462" y="130" type="curve" smooth="yes"/>
      <point x="462" y="106"/>
      <point x="446" y="90"/>
    </contour>
    <contour>
      <point x="270" y="884" type="move" name="_top"/>
    </contour>
  </outline>
</glyph>
<glyph name="a" format="1">
  <advance width="1066"/>
  <unicode hex="0061"/>
  <outline>
    <contour>
      <point x="448" y="157" type="curve" smooth="yes"/>
      <point x="412" y="157"/>
      <point x="384" y="191"/>
      <point x="384" y="243" type="curve" smooth="yes"/>
      <point x="384" y="280"/>
      <point x="414" y="331"/>
      <point x="494" y="374" type="curve" smooth="yes"/>
      <point x="514" y="385"/>
      <point x="538" y="395"/>
      <point x="564" y="404" type="curve"/>
      <point x="564" y="216" type="line"/>
      <point x="535" y="181"/>
      <point x="496" y="157"/>
    </contour>
    <contour>
      <point x="379" y="-25" type="curve" smooth="yes"/>
      <point x="457" y="-25"/>
      <point x="563" y="19"/>
      <point x="611" y="109" type="curve"/>
      <point x="675" y="-13"/>
      <point x="829" y="-18"/>
      <point x="871" y="-18" type="curve" smooth="yes"/>
      <point x="889" y="-18" type="line"/>
      <point x="968" y="202" type="line"/>
      <point x="954" y="202" type="line" smooth="yes"/>
      <point x="876" y="202"/>
      <point x="835" y="229"/>
      <point x="835" y="321" type="curve" smooth="yes"/>
      <point x="835" y="602" type="line" smooth="yes"/>
      <point x="835" y="825"/>
      <point x="644" y="904"/>
      <point x="486" y="904" type="curve" smooth="yes"/>
      <point x="272" y="904"/>
      <point x="130" y="803"/>
      <point x="120" y="794" type="curve"/>
      <point x="197" y="582" type="line"/>
      <point x="239" y="605"/>
      <point x="360" y="676"/>
      <point x="457" y="676" type="curve" smooth="yes"/>
      <point x="518" y="676"/>
      <point x="565" y="649"/>
      <point x="565" y="549" type="curve" smooth="yes"/>
      <point x="565" y="529" type="line"/>
      <point x="467" y="506" type="line" smooth="yes"/>
      <point x="237" y="452"/>
      <point x="115" y="350"/>
      <point x="115" y="230" type="curve" smooth="yes"/>
      <point x="115" y="67"/>
      <point x="242" y="-25"/>
    </contour>
    <contour>
      <point x="482" y="884" type="move" name="top"/>
    </contour>
    <contour>
      <point x="867" y="10" type="move" name="ogonek"/>
    </contour>
  </outline>
</glyph>
<glyph name="b" format="1">
  <advance width="1128"/>
  <unicode hex="0062"/>
  <outline>
    <contour>
      <point x="529" y="-20" type="curve" smooth="yes"/>
      <point x="835" y="-20"/>
      <point x="1021" y="162"/>
      <point x="1021" y="475" type="curve" smooth="yes"/>
      <point x="1021" y="717"/>
      <point x="842" y="904"/>
      <point x="619" y="904" type="curve" smooth="yes"/>
      <point x="551" y="904"/>
      <point x="479" y="886"/>
      <point x="406" y="846" type="curve"/>
      <point x="406" y="1277" type="line"/>
      <point x="131" y="1240" type="line"/>
      <point x="131" y="55" type="line"/>
      <point x="278" y="6"/>
      <point x="414" y="-20"/>
    </contour>
    <contour>
      <point x="486" y="191" type="curve" smooth="yes"/>
      <point x="461" y="191"/>
      <point x="436" y="192"/>
      <point x="406" y="196" type="curve"/>
      <point x="406" y="646" type="line"/>
      <point x="456" y="669"/>
      <point x="503" y="680"/>
      <point x="546" y="680" type="curve" smooth="yes"/>
      <point x="668" y="680"/>
      <point x="751" y="593"/>
      <point x="751" y="453" type="curve" smooth="yes"/>
      <point x="751" y="274"/>
      <point x="652" y="191"/>
    </contour>
  </outline>
</glyph>
<glyph name="c" format="1">
  <advance width="1006"/>
  <unicode hex="0063"/>
  <outline>
    <contour>
      <point x="477" y="884" type="move" name="top"/>
    </contour>
    <contour>
      <point x="477" y="0" type="move" name="bottom"/>
    </contour>
    <contour>
      <point x="604" y="-25" type="curve" smooth="yes"/>
      <point x="767" y="-25"/>
      <point x="865" y="49"/>
      <point x="881" y="57" type="curve"/>
      <point x="881" y="295" type="line"/>
      <point x="808" y="255"/>
      <point x="754" y="217"/>
      <point x="625" y="217" type="curve" smooth="yes"/>
      <point x="467" y="217"/>
      <point x="378" y="314"/>
      <point x="378" y="441" type="curve" smooth="yes"/>
      <point x="378" y="568"/>
      <point x="464" y="658"/>
      <point x="613" y="658" type="curve" smooth="yes"/>
      <point x="774" y="658"/>
      <point x="860" y="571"/>
      <point x="881" y="554" type="curve"/>
      <point x="881" y="826" type="line"/>
      <point x="868" y="835"/>
      <point x="794" y="903"/>
      <point x="598" y="903" type="curve" smooth="yes"/>
      <point x="317" y="903"/>
      <point x="103" y="717"/>
      <point x="103" y="440" type="curve" smooth="yes"/>
      <point x="103" y="169"/>
      <point x="306" y="-25"/>
    </contour>
  </outline>
</glyph>
<glyph name="d" format="1">
  <advance width="1127"/>
  <unicode hex="0064"/>
  <outline>
    <contour>
      <point x="547" y="442" type="move" name="center"/>
    </contour>
    <contour>
      <point x="600" y="-20" type="curve" smooth="yes"/>
      <point x="715" y="-20"/>
      <point x="851" y="6"/>
      <point x="998" y="55" type="curve"/>
      <point x="998" y="1277" type="line"/>
      <point x="723" y="1240" type="line"/>
      <point x="723" y="846" type="line"/>
      <point x="651" y="886"/>
      <point x="578" y="904"/>
      <point x="510" y="904" type="curve" smooth="yes"/>
      <point x="287" y="904"/>
      <point x="105" y="717"/>
      <point x="105" y="475" type="curve" smooth="yes"/>
      <point x="105" y="162"/>
      <point x="284" y="-20"/>
    </contour>
    <contour>
      <point x="643" y="191" type="curve" smooth="yes"/>
      <point x="477" y="191"/>
      <point x="375" y="274"/>
      <point x="375" y="453" type="curve" smooth="yes"/>
      <point x="375" y="593"/>
      <point x="461" y="680"/>
      <point x="583" y="680" type="curve" smooth="yes"/>
      <point x="626" y="680"/>
      <point x="671" y="670"/>
      <point x="723" y="646" type="curve"/>
      <point x="723" y="196" type="line"/>
      <point x="695" y="193"/>
      <point x="668" y="191"/>
    </contour>
  </outline>
</glyph>
<glyph name="e" format="1">
  <advance width="1068"/>
  <unicode hex="0065"/>
  <outline>
    <contour>
      <point x="505" y="884" type="move" name="top"/>
    </contour>
    <contour>
      <point x="505" y="0" type="move" name="bottom"/>
    </contour>
    <contour>
      <point x="909" y="10" type="move" name="ogonek"/>
    </contour>
    <contour>
      <point x="633" y="-27" type="curve" smooth="yes"/>
      <point x="742" y="-27"/>
      <point x="850" y="3"/>
      <point x="940" y="56" type="curve"/>
      <point x="940" y="285" type="line"/>
      <point x="876" y="238"/>
      <point x="773" y="196"/>
      <point x="657" y="196" type="curve" smooth="yes"/>
      <point x="533" y="196"/>
      <point x="414" y="243"/>
      <point x="382" y="389" type="curve"/>
      <point x="951" y="389" type="line"/>
      <point x="951" y="456" type="line" smooth="yes"/>
      <point x="951" y="703"/>
      <point x="833" y="903"/>
      <point x="550" y="903" type="curve" smooth="yes"/>
      <point x="286" y="903"/>
      <point x="103" y="693"/>
      <point x="103" y="453" type="curve" smooth="yes"/>
      <point x="103" y="131"/>
      <point x="370" y="-27"/>
    </contour>
    <contour>
      <point x="724" y="566" type="curve"/>
      <point x="394" y="566" type="line"/>
      <point x="417" y="648"/>
      <point x="491" y="701"/>
      <point x="578" y="701" type="curve" smooth="yes"/>
      <point x="653" y="701"/>
      <point x="712" y="663"/>
    </contour>
  </outline>
</glyph>
<glyph name="f" format="1">
  <advance width="853"/>
  <unicode hex="0066"/>
  <outline>
    <contour>
      <point x="111" y="659" type="line"/>
      <point x="229" y="659" type="line"/>
      <point x="229" y="0" type="line"/>
      <point x="505" y="0" type="line"/>
      <point x="505" y="659" type="line"/>
      <point x="661" y="659" type="line"/>
      <point x="661" y="876" type="line"/>
      <point x="505" y="876" type="line"/>
      <point x="505" y="942" type="line" smooth="yes"/>
      <point x="505" y="1002"/>
      <point x="549" y="1019"/>
      <point x="600" y="1019" type="curve" smooth="yes"/>
      <point x="672" y="1019"/>
      <point x="759" y="985"/>
      <point x="759" y="985" type="curve"/>
      <point x="759" y="1227" type="line"/>
      <point x="759" y="1227"/>
      <point x="656" y="1269"/>
      <point x="554" y="1269" type="curve" smooth="yes"/>
      <point x="335" y="1269"/>
      <point x="226" y="1152"/>
      <point x="226" y="942" type="curve" smooth="yes"/>
      <point x="226" y="876" type="line"/>
      <point x="111" y="876" type="line"/>
    </contour>
  </outline>
</glyph>
<glyph name="g" format="1">
  <advance width="1148"/>
  <unicode hex="0067"/>
  <outline>
    <contour>
      <point x="559" y="884" type="move" name="top"/>
    </contour>
    <contour>
      <point x="612" y="-393" type="curve" smooth="yes"/>
      <point x="807" y="-393"/>
      <point x="1020" y="-318"/>
      <point x="1020" y="-21" type="curve" smooth="yes"/>
      <point x="1020" y="876" type="line"/>
      <point x="749" y="876" type="line"/>
      <point x="749" y="821" type="line"/>
      <point x="700" y="869"/>
      <point x="591" y="901"/>
      <point x="536" y="901" type="curve" smooth="yes"/>
      <point x="292" y="901"/>
      <point x="103" y="696"/>
      <point x="103" y="448" type="curve" smooth="yes"/>
      <point x="103" y="232"/>
      <point x="257" y="-15"/>
      <point x="593" y="-15" type="curve" smooth="yes"/>
      <point x="652" y="-15"/>
      <point x="735" y="-5"/>
      <point x="770" y="6" type="curve"/>
      <point x="771" y="-3"/>
      <point x="772" y="-13"/>
      <point x="772" y="-20" type="curve" smooth="yes"/>
      <point x="772" y="-123"/>
      <point x="683" y="-146"/>
      <point x="590" y="-146" type="curve" smooth="yes"/>
      <point x="446" y="-146"/>
      <point x="289" y="-85"/>
      <point x="289" y="-85" type="curve"/>
      <point x="289" y="-322" type="line"/>
      <point x="307" y="-328"/>
      <point x="438" y="-393"/>
    </contour>
    <contour>
      <point x="624" y="196" type="curve" smooth="yes"/>
      <point x="476" y="196"/>
      <point x="371" y="294"/>
      <point x="371" y="436" type="curve" smooth="yes"/>
      <point x="371" y="574"/>
      <point x="462" y="679"/>
      <point x="607" y="679" type="curve" smooth="yes"/>
      <point x="648" y="679"/>
      <point x="700" y="670"/>
      <point x="746" y="642" type="curve"/>
      <point x="746" y="204" type="line"/>
      <point x="701" y="193"/>
      <point x="658" y="196"/>
    </contour>
  </outline>
</glyph>
<glyph name="h" format="1">
  <advance width="1181"/>
  <unicode hex="0068"/>
  <outline>
    <contour>
      <point x="580" y="884" type="move" name="top"/>
    </contour>
    <contour>
      <point x="580" y="442" type="move" name="center"/>
    </contour>
    <contour>
      <point x="410" y="1277" type="line"/>
      <point x="131" y="1240" type="line"/>
      <point x="131" y="0" type="line"/>
      <point x="413" y="0" type="line"/>
      <point x="413" y="581" type="line"/>
      <point x="441" y="636"/>
      <point x="539" y="688"/>
      <point x="634" y="688" type="curve" smooth="yes"/>
      <point x="712" y="688"/>
      <point x="777" y="654"/>
      <point x="777" y="559" type="curve" smooth="yes"/>
      <point x="777" y="0" type="line"/>
      <point x="1059" y="0" type="line"/>
      <point x="1059" y="580" type="line" smooth="yes"/>
      <point x="1059" y="771"/>
      <point x="907" y="903"/>
      <point x="720" y="903" type="curve" smooth="yes"/>
      <point x="621" y="903"/>
      <point x="512" y="874"/>
      <point x="410" y="785" type="curve"/>
    </contour>
  </outline>
</glyph>
<glyph name="i" format="1">
  <advance width="575"/>
  <unicode hex="0069"/>
  <outline>
    <contour>
      <point x="288" y="970" type="curve" smooth="yes"/>
      <point x="394" y="970"/>
      <point x="456" y="1052"/>
      <point x="456" y="1135" type="curve" smooth="yes"/>
      <point x="456" y="1215"/>
      <point x="395" y="1300"/>
      <point x="288" y="1300" type="curve" smooth="yes"/>
      <point x="181" y="1300"/>
      <point x="119" y="1216"/>
      <point x="119" y="1135" type="curve" smooth="yes"/>
      <point x="119" y="1051"/>
      <point x="182" y="970"/>
    </contour>
    <contour>
      <point x="424" y="876" type="line"/>
      <point x="151" y="876" type="line"/>
      <point x="151" y="0" type="line"/>
      <point x="424" y="0" type="line"/>
    </contour>
  </outline>
</glyph>
<glyph name="j" format="1">
  <advance width="677"/>
  <unicode hex="006A"/>
  <outline>
    <contour>
      <point x="388" y="959" type="curve" smooth="yes"/>
      <point x="494" y="959"/>
      <point x="557" y="1041"/>
      <point x="557" y="1125" type="curve" smooth="yes"/>
      <point x="557" y="1208"/>
      <point x="494" y="1288"/>
      <point x="388" y="1288" type="curve" smooth="yes"/>
      <point x="286" y="1288"/>
      <point x="218" y="1209"/>
      <point x="218" y="1125" type="curve" smooth="yes"/>
      <point x="218" y="1040"/>
      <point x="285" y="959"/>
    </contour>
    <contour>
      <point x="117" y="-112" type="curve" smooth="yes"/>
      <point x="76" y="-122" type="line"/>
      <point x="131" y="-346" type="line"/>
      <point x="470" y="-346"/>
      <point x="527" y="-147"/>
      <point x="527" y="-19" type="curve" smooth="yes"/>
      <point x="527" y="876" type="line"/>
      <point x="250" y="876" type="line"/>
      <point x="250" y="14" type="line" smooth="yes"/>
      <point x="250" y="-85"/>
      <point x="188" y="-95"/>
    </contour>
  </outline>
</glyph>
<glyph name="k" format="1">
  <advance width="1193"/>
  <unicode hex="006B"/>
  <outline>
    <contour>
      <point x="536" y="0" type="move" name="bottom"/>
    </contour>
    <contour>
      <point x="406" y="1276" type="line"/>
      <point x="131" y="1241" type="line"/>
      <point x="131" y="0" type="line"/>
      <point x="406" y="0" type="line"/>
      <point x="406" y="389" type="line"/>
      <point x="737" y="0" type="line"/>
      <point x="1089" y="0" type="line"/>
      <point x="676" y="470" type="line"/>
      <point x="1040" y="875" type="line"/>
      <point x="696" y="875" type="line"/>
      <point x="406" y="538" type="line"/>
    </contour>
  </outline>
</glyph>
<glyph name="l" format="1">
  <advance width="757"/>
  <unicode hex="006C"/>
  <outline>
    <contour>
      <point x="355" y="884" type="move" name="top"/>
    </contour>
    <contour>
      <point x="355" y="0" type="move" name="bottom"/>
    </contour>
    <contour>
      <point x="689" y="884" type="move" name="topright"/>
    </contour>
    <contour>
      <point x="425" y="-24" type="curve" smooth="yes"/>
      <point x="561" y="-24"/>
      <point x="642" y="15"/>
      <point x="653" y="21" type="curve"/>
      <point x="653" y="246" type="line"/>
      <point x="622" y="231"/>
      <point x="554" y="210"/>
      <point x="497" y="210" type="curve" smooth="yes"/>
      <point x="445" y="210"/>
      <point x="404" y="229"/>
      <point x="404" y="298" type="curve" smooth="yes"/>
      <point x="404" y="1277" type="line"/>
      <point x="129" y="1240" type="line"/>
      <point x="129" y="270" type="line" smooth="yes"/>
      <point x="129" y="75"/>
      <point x="274" y="-24"/>
    </contour>
  </outline>
</glyph>
<glyph name="m" format="1">
  <advance width="1720"/>
  <unicode hex="006D"/>
  <outline>
    <contour>
      <point x="397" y="876" type="line"/>
      <point x="125" y="876" type="line"/>
      <point x="125" y="0" type="line"/>
      <point x="400" y="0" type="line"/>
      <point x="400" y="581" type="line"/>
      <point x="453" y="651"/>
      <point x="539" y="680"/>
      <point x="605" y="680" type="curve" smooth="yes"/>
      <point x="650" y="680"/>
      <point x="721" y="655"/>
      <point x="721" y="559" type="curve" smooth="yes"/>
      <point x="721" y="0" type="line"/>
      <point x="993" y="0" type="line"/>
      <point x="993" y="584" type="line"/>
      <point x="1039" y="635"/>
      <point x="1130" y="680"/>
      <point x="1201" y="680" type="curve" smooth="yes"/>
      <point x="1265" y="680"/>
      <point x="1323" y="652"/>
      <point x="1323" y="548" type="curve" smooth="yes"/>
      <point x="1323" y="0" type="line"/>
      <point x="1598" y="0" type="line"/>
      <point x="1598" y="567" type="line" smooth="yes"/>
      <point x="1598" y="798"/>
      <point x="1421" y="902"/>
      <point x="1249" y="902" type="curve" smooth="yes"/>
      <point x="1208" y="902"/>
      <point x="1054" y="896"/>
      <point x="932" y="770" type="curve"/>
      <point x="884" y="844"/>
      <point x="798" y="901"/>
      <point x="683" y="901" type="curve" smooth="yes"/>
      <point x="632" y="901"/>
      <point x="487" y="894"/>
      <point x="397" y="785" type="curve"/>
    </contour>
  </outline>
</glyph>
<glyph name="n" format="1">
  <advance width="1175"/>
  <unicode hex="006E"/>
  <outline>
    <contour>
      <point x="580" y="884" type="move" name="top"/>
    </contour>
    <contour>
      <point x="580" y="0" type="move" name="bottom"/>
    </contour>
    <contour>
      <point x="404" y="876" type="line"/>
      <point x="125" y="876" type="line"/>
      <point x="125" y="0" type="line"/>
      <point x="407" y="0" type="line"/>
      <point x="407" y="581" type="line"/>
      <point x="435" y="636"/>
      <point x="534" y="688"/>
      <point x="629" y="688" type="curve" smooth="yes"/>
      <point x="707" y="688"/>
      <point x="771" y="654"/>
      <point x="771" y="559" type="curve" smooth="yes"/>
      <point x="771" y="0" type="line"/>
      <point x="1053" y="0" type="line"/>
      <point x="1053" y="580" type="line" smooth="yes"/>
      <point x="1053" y="771"/>
      <point x="901" y="903"/>
      <point x="714" y="903" type="curve" smooth="yes"/>
      <point x="615" y="903"/>
      <point x="506" y="874"/>
      <point x="404" y="785" type="curve"/>
    </contour>
  </outline>
</glyph>
<glyph name="o" format="1">
  <advance width="1196"/>
  <unicode hex="006F"/>
  <outline>
    <contour>
      <point x="573" y="884" type="move" name="top"/>
    </contour>
    <contour>
      <point x="597" y="-25" type="curve" smooth="yes"/>
      <point x="322" y="-25"/>
      <point x="103" y="161"/>
      <point x="103" y="441" type="curve" smooth="yes"/>
      <point x="103" y="719"/>
      <point x="322" y="903"/>
      <point x="597" y="903" type="curve" smooth="yes"/>
      <point x="872" y="903"/>
      <point x="1091" y="719"/>
      <point x="1091" y="441" type="curve" smooth="yes"/>
      <point x="1091" y="161"/>
      <point x="872" y="-25"/>
    </contour>
    <contour>
      <point x="597" y="201" type="curve" smooth="yes"/>
      <point x="746" y="201"/>
      <point x="823" y="318"/>
      <point x="823" y="439" type="curve" smooth="yes"/>
      <point x="823" y="558"/>
      <point x="748" y="677"/>
      <point x="597" y="677" type="curve" smooth="yes"/>
      <point x="446" y="677"/>
      <point x="371" y="558"/>
      <point x="371" y="439" type="curve" smooth="yes"/>
      <point x="371" y="318"/>
      <point x="448" y="201"/>
    </contour>
  </outline>
</glyph>
<glyph name="p" format="1">
  <advance width="1122"/>
  <unicode hex="0070"/>
  <outline>
    <contour>
      <point x="401" y="876" type="line"/>
      <point x="125" y="876" type="line"/>
      <point x="125" y="-364" type="line"/>
      <point x="401" y="-364" type="line"/>
      <point x="401" y="-2" type="line"/>
      <point x="401" y="-2"/>
      <point x="469" y="-12"/>
      <point x="527" y="-12" type="curve" smooth="yes"/>
      <point x="830" y="-12"/>
      <point x="1015" y="173"/>
      <point x="1015" y="451" type="curve" smooth="yes"/>
      <point x="1015" y="705"/>
      <point x="862" y="906"/>
      <point x="616" y="906" type="curve" smooth="yes"/>
      <point x="509" y="906"/>
      <point x="438" y="866"/>
      <point x="401" y="832" type="curve"/>
    </contour>
    <contour>
      <point x="480" y="191" type="curve" smooth="yes"/>
      <point x="455" y="191"/>
      <point x="431" y="192"/>
      <point x="401" y="196" type="curve"/>
      <point x="401" y="646" type="line"/>
      <point x="451" y="669"/>
      <point x="497" y="680"/>
      <point x="540" y="680" type="curve" smooth="yes"/>
      <point x="662" y="680"/>
      <point x="745" y="593"/>
      <point x="745" y="453" type="curve" smooth="yes"/>
      <point x="745" y="274"/>
      <point x="646" y="191"/>
    </contour>
  </outline>
</glyph>
<glyph name="q" format="1">
  <advance width="1091"/>
  <unicode hex="0071"/>
  <outline>
    <contour>
      <point x="694" y="-364" type="line"/>
      <point x="969" y="-364" type="line"/>
      <point x="969" y="876" type="line"/>
      <point x="694" y="876" type="line"/>
      <point x="694" y="849" type="line"/>
      <point x="672" y="863"/>
      <point x="607" y="901"/>
      <point x="520" y="901" type="curve" smooth="yes"/>
      <point x="271" y="901"/>
      <point x="79" y="731"/>
      <point x="79" y="418" type="curve" smooth="yes"/>
      <point x="79" y="160"/>
      <point x="288" y="-24"/>
      <point x="511" y="-24" type="curve" smooth="yes"/>
      <point x="579" y="-24"/>
      <point x="631" y="-18"/>
      <point x="694" y="7" type="curve"/>
    </contour>
    <contour>
      <point x="554" y="200" type="curve" smooth="yes"/>
      <point x="432" y="200"/>
      <point x="349" y="297"/>
      <point x="349" y="437" type="curve" smooth="yes"/>
      <point x="349" y="616"/>
      <point x="444" y="689"/>
      <point x="582" y="689" type="curve" smooth="yes"/>
      <point x="607" y="689"/>
      <point x="694" y="676"/>
      <point x="694" y="676" type="curve"/>
      <point x="694" y="207" type="line"/>
      <point x="694" y="207"/>
      <point x="658" y="200"/>
    </contour>
  </outline>
</glyph>
<glyph name="r" format="1">
  <advance width="955"/>
  <unicode hex="0072"/>
  <outline>
    <contour>
      <point x="427" y="884" type="move" name="top"/>
    </contour>
    <contour>
      <point x="427" y="0" type="move" name="bottom"/>
    </contour>
    <contour>
      <point x="398" y="876" type="line"/>
      <point x="125" y="876" type="line"/>
      <point x="125" y="0" type="line"/>
      <point x="398" y="0" type="line"/>
      <point x="398" y="365" type="line" smooth="yes"/>
      <point x="398" y="535"/>
      <point x="500" y="615"/>
      <point x="583" y="615" type="curve" smooth="yes"/>
      <point x="636" y="615"/>
      <point x="690" y="578"/>
      <point x="734" y="521" type="curve"/>
      <point x="859" y="744" type="line"/>
      <point x="783" y="832"/>
      <point x="712" y="881"/>
      <point x="630" y="881" type="curve" smooth="yes"/>
      <point x="558" y="881"/>
      <point x="438" y="779"/>
      <point x="398" y="630" type="curve"/>
    </contour>
  </outline>
</glyph>
<glyph name="s" format="1">
  <advance width="895"/>
  <unicode hex="0073"/>
  <outline>
    <contour>
      <point x="419" y="884" type="move" name="top"/>
    </contour>
    <contour>
      <point x="419" y="0" type="move" name="bottom"/>
    </contour>
    <contour>
      <point x="477" y="-25" type="curve" smooth="yes"/>
      <point x="672" y="-25"/>
      <point x="782" y="104"/>
      <point x="782" y="236" type="curve" smooth="yes"/>
      <point x="782" y="321"/>
      <point x="736" y="413"/>
      <point x="646" y="469" type="curve" smooth="yes"/>
      <point x="433" y="601" type="line" smooth="yes"/>
      <point x="414" y="613"/>
      <point x="402" y="632"/>
      <point x="402" y="651" type="curve" smooth="yes"/>
      <point x="402" y="674"/>
      <point x="422" y="696"/>
      <point x="469" y="696" type="curve" smooth="yes"/>
      <point x="566" y="696"/>
      <point x="689" y="639"/>
      <point x="707" y="627" type="curve"/>
      <point x="758" y="823" type="line"/>
      <point x="747" y="831"/>
      <point x="626" y="904"/>
      <point x="445" y="904" type="curve" smooth="yes"/>
      <point x="247" y="904"/>
      <point x="134" y="778"/>
      <point x="134" y="644" type="curve" smooth="yes"/>
      <point x="134" y="557"/>
      <point x="181" y="462"/>
      <point x="278" y="402" type="curve" smooth="yes"/>
      <point x="476" y="282" type="line" smooth="yes"/>
      <point x="503" y="265"/>
      <point x="514" y="247"/>
      <point x="514" y="231" type="curve" smooth="yes"/>
      <point x="514" y="205"/>
      <point x="487" y="192"/>
      <point x="457" y="192" type="curve" smooth="yes"/>
      <point x="305" y="192"/>
      <point x="181" y="272"/>
      <point x="137" y="300" type="curve"/>
      <point x="110" y="91" type="line"/>
      <point x="117" y="84"/>
      <point x="246" y="-25"/>
    </contour>
  </outline>
</glyph>
<glyph name="t" format="1">
  <advance width="918"/>
  <unicode hex="0074"/>
  <outline>
    <contour>
      <point x="409" y="442" type="move" name="center"/>
    </contour>
    <contour>
      <point x="409" y="0" type="move" name="bottom"/>
    </contour>
    <contour>
      <point x="522" y="-26" type="curve" smooth="yes"/>
      <point x="700" y="-26"/>
      <point x="795" y="53"/>
      <point x="801" y="59" type="curve"/>
      <point x="801" y="268" type="line"/>
      <point x="765" y="253"/>
      <point x="662" y="207"/>
      <point x="584" y="207" type="curve" smooth="yes"/>
      <point x="530" y="207"/>
      <point x="488" y="228"/>
      <point x="488" y="296" type="curve" smooth="yes"/>
      <point x="488" y="660" type="line"/>
      <point x="756" y="660" type="line"/>
      <point x="756" y="875" type="line"/>
      <point x="488" y="875" type="line"/>
      <point x="488" y="1136" type="line"/>
      <point x="126" y="762" type="line"/>
      <point x="107" y="745"/>
      <point x="99" y="727"/>
      <point x="99" y="710" type="curve" smooth="yes"/>
      <point x="99" y="682"/>
      <point x="122" y="660"/>
      <point x="162" y="660" type="curve" smooth="yes"/>
      <point x="218" y="660" type="line"/>
      <point x="218" y="221" type="line" smooth="yes"/>
      <point x="218" y="61"/>
      <point x="372" y="-26"/>
    </contour>
  </outline>
</glyph>
<glyph name="u" format="1">
  <advance width="1150"/>
  <unicode hex="0075"/>
  <outline>
    <contour>
      <point x="449" y="-28.0001" type="curve" smooth="yes"/>
      <point x="548.229" y="-28.0001"/>
      <point x="647.996" y="8.32217"/>
      <point x="749" y="98.1825" type="curve"/>
      <point x="749" y="-9.15527e-05" type="line"/>
      <point x="1028" y="-9.15527e-05" type="line"/>
      <point x="1028" y="876" type="line"/>
      <point x="746" y="876" type="line"/>
      <point x="746" y="294.131" type="line"/>
      <point x="717.934" y="238.907"/>
      <point x="622.289" y="187"/>
      <point x="528" y="187" type="curve" smooth="yes"/>
      <point x="449.719" y="187"/>
      <point x="392" y="220.952"/>
      <point x="392" y="316.243" type="curve" smooth="yes"/>
      <point x="392" y="876" type="line"/>
      <point x="110" y="876" type="line"/>
      <point x="110" y="294.85" type="line" smooth="yes"/>
      <point x="110" y="104.255"/>
      <point x="262.057" y="-28.0001"/>
    </contour>
    <contour>
      <point x="575" y="884" type="move" name="top"/>
    </contour>
    <contour>
      <point x="1035" y="10" type="move" name="ogonek"/>
    </contour>
  </outline>
</glyph>
<glyph name="v" format="1">
  <advance width="1187"/>
  <unicode hex="0076"/>
  <outline>
    <contour>
      <point x="402" y="876" type="line"/>
      <point x="95" y="876" type="line"/>
      <point x="594" y="-27" type="line"/>
      <point x="1093" y="876" type="line"/>
      <point x="783" y="876" type="line"/>
      <point x="594" y="464" type="line"/>
    </contour>
  </outline>
</glyph>
<glyph name="w" format="1">
  <advance width="1329"/>
  <unicode hex="0077"/>
  <outline>
    <contour>
      <point x="401" y="-17" type="line"/>
      <point x="669" y="485" type="line"/>
      <point x="936" y="-18" type="line"/>
      <point x="1311" y="876" type="line"/>
      <point x="1043" y="876" type="line"/>
      <point x="896" y="481" type="line"/>
      <point x="669" y="901" type="line"/>
      <point x="440" y="493" type="line"/>
      <point x="301" y="876" type="line"/>
      <point x="18" y="876" type="line"/>
    </contour>
    <contour>
      <point x="665" y="884" type="move" name="top"/>
    </contour>
  </outline>
</glyph>
<glyph name="x" format="1">
  <advance width="1347"/>
  <unicode hex="0078"/>
  <outline>
    <contour>
      <point x="120" y="875" type="line"/>
      <point x="501" y="450" type="line"/>
      <point x="111" y="0" type="line"/>
      <point x="461" y="0" type="line"/>
      <point x="678" y="281" type="line"/>
      <point x="906" y="0" type="line"/>
      <point x="1236" y="0" type="line"/>
      <point x="844" y="440" type="line"/>
      <point x="1220" y="875" type="line"/>
      <point x="876" y="875" type="line"/>
      <point x="667" y="609" type="line"/>
      <point x="451" y="875" type="line"/>
    </contour>
  </outline>
</glyph>
<glyph name="y" format="1">
  <advance width="1020"/>
  <unicode hex="0079"/>
  <outline>
    <contour>
      <point x="147.424" y="-244" type="line"/>
      <point x="446.287" y="-244" type="line"/>
      <point x="1024" y="876" type="line"/>
      <point x="719" y="876" type="line"/>
      <point x="527" y="483" type="line"/>
      <point x="318" y="876" type="line"/>
      <point x="-1" y="876" type="line"/>
      <point x="375" y="230" type="line"/>
    </contour>
    <contour>
      <point x="510" y="884" type="move" name="top"/>
    </contour>
  </outline>
</glyph>
<glyph name="z" format="1">
  <advance width="1029"/>
  <unicode hex="007A"/>
  <outline>
    <contour>
      <point x="458" y="884" type="move" name="top"/>
    </contour>
    <contour>
      <point x="141" y="669" type="line"/>
      <point x="519" y="669" type="line"/>
      <point x="112" y="0" type="line"/>
      <point x="883" y="0" type="line"/>
      <point x="883" y="215" type="line"/>
      <point x="539" y="215" type="line"/>
      <point x="914" y="876" type="line"/>
      <point x="141" y="876" type="line"/>
    </contour>
  </outline>
</glyph>
<glyph name="bar" format="1">
  <advance width="709"/>
  <unicode hex="007C"/>
  <outline>
    <contour>
      <point x="122" y="-90" type="line"/>
      <point x="122" y="-90"/>
      <point x="397" y="-90"/>
      <point x="397" y="-89" type="curve" smooth="yes"/>
      <point x="397" y="1277" type="line"/>
      <point x="122" y="1277" type="line"/>
    </contour>
  </outline>
</glyph>
<glyph name="asciitilde" format="1">
  <advance width="1080"/>
  <unicode hex="007E"/>
  <outline>
    <contour>
      <point x="765" y="597" type="curve" smooth="yes"/>
      <point x="941" y="597"/>
      <point x="970" y="693"/>
      <point x="974" y="875" type="curve"/>
      <point x="846" y="875" type="line"/>
      <point x="833" y="801"/>
      <point x="831" y="739"/>
      <point x="761" y="739" type="curve" smooth="yes"/>
      <point x="657" y="739"/>
      <point x="488" y="889"/>
      <point x="332" y="889" type="curve" smooth="yes"/>
      <point x="156" y="889"/>
      <point x="107" y="793"/>
      <point x="103" y="611" type="curve"/>
      <point x="231" y="611" type="line"/>
      <point x="244" y="691"/>
      <point x="252" y="746"/>
      <point x="334" y="746" type="curve" smooth="yes"/>
      <point x="455" y="746"/>
      <point x="611" y="597"/>
    </contour>
  </outline>
</glyph>
<glyph name="cent" format="1">
  <advance width="541"/>
  <unicode hex="00A2"/>
  <outline>
    <contour>
      <point x="444" y="1044" type="line"/>
      <point x="337" y="1044" type="line"/>
      <point x="82" y="-182" type="line"/>
      <point x="177" y="-182" type="line"/>
    </contour>
    <component base="c"/>
  </outline>
</glyph>
<glyph name="sterling" format="1">
  <advance width="1177"/>
  <unicode hex="00A3"/>
  <outline>
    <contour>
      <point x="772" y="-34" type="curve" smooth="yes"/>
      <point x="972" y="-34"/>
      <point x="1068" y="97"/>
      <point x="1068" y="302" type="curve"/>
      <point x="835" y="302" type="line"/>
      <point x="835" y="264"/>
      <point x="830" y="195"/>
      <point x="729" y="195" type="curve" smooth="yes"/>
      <point x="672" y="195"/>
      <point x="613" y="212"/>
      <point x="562" y="241" type="curve"/>
      <point x="604" y="309"/>
      <point x="632" y="374"/>
      <point x="632" y="433" type="curve" smooth="yes"/>
      <point x="632" y="466"/>
      <point x="628" y="497"/>
      <point x="620" y="527" type="curve"/>
      <point x="847" y="527" type="line"/>
      <point x="847" y="717" type="line"/>
      <point x="546" y="717" type="line"/>
      <point x="518" y="778"/>
      <point x="493" y="835"/>
      <point x="493" y="889" type="curve" smooth="yes"/>
      <point x="493" y="974"/>
      <point x="566" y="1030"/>
      <point x="659" y="1030" type="curve" smooth="yes"/>
      <point x="772" y="1030"/>
      <point x="825" y="958"/>
      <point x="873" y="915" type="curve"/>
      <point x="1004" y="1118" type="line"/>
      <point x="918" y="1216"/>
      <point x="762" y="1274"/>
      <point x="618" y="1274" type="curve" smooth="yes"/>
      <point x="378" y="1274"/>
      <point x="172" y="1168"/>
      <point x="172" y="924" type="curve" smooth="yes"/>
      <point x="172" y="868"/>
      <point x="202" y="794"/>
      <point x="235" y="717" type="curve"/>
      <point x="131" y="717" type="line"/>
      <point x="131" y="527" type="line"/>
      <point x="306" y="527" type="line"/>
      <point x="315" y="493"/>
      <point x="320" y="458"/>
      <point x="320" y="425" type="curve" smooth="yes"/>
      <point x="320" y="307"/>
      <point x="244" y="169"/>
      <point x="117" y="0" type="curve"/>
      <point x="389" y="0" type="line"/>
      <point x="410" y="28"/>
      <point x="430" y="55"/>
      <point x="451" y="83" type="curve"/>
      <point x="552" y="14"/>
      <point x="677" y="-34"/>
    </contour>
  </outline>
</glyph>
<glyph name="yen" format="1">
  <advance width="1393"/>
  <unicode hex="00A5"/>
  <outline>
    <contour>
      <point x="206" y="354" type="line"/>
      <point x="551" y="354" type="line"/>
      <point x="551" y="0" type="line"/>
      <point x="859" y="0" type="line"/>
      <point x="859" y="354" type="line"/>
      <point x="1193" y="354" type="line"/>
      <point x="1193" y="522" type="line"/>
      <point x="895" y="522" type="line"/>
      <point x="968" y="649" type="line"/>
      <point x="1203" y="649" type="line"/>
      <point x="1203" y="817" type="line"/>
      <point x="1064" y="817" type="line"/>
      <point x="1306" y="1241" type="line"/>
      <point x="991" y="1241" type="line"/>
      <point x="706" y="707" type="line"/>
      <point x="398" y="1241" type="line"/>
      <point x="89" y="1241" type="line"/>
      <point x="341" y="817" type="line"/>
      <point x="196" y="817" type="line"/>
      <point x="196" y="649" type="line"/>
      <point x="440" y="649" type="line"/>
      <point x="516" y="522" type="line"/>
      <point x="206" y="522" type="line"/>
    </contour>
  </outline>
</glyph>
<glyph name="brokenbar" format="1">
  <advance width="536"/>
  <unicode hex="00A6"/>
  <outline>
    <contour>
      <point x="406" y="442" type="line"/>
      <point x="131" y="442" type="line"/>
      <point x="131" y="-90" type="line"/>
      <point x="131" y="-90"/>
      <point x="406" y="-90"/>
      <point x="406" y="-89" type="curve" smooth="yes"/>
    </contour>
    <contour>
      <point x="406" y="1277" type="line"/>
      <point x="131" y="1277" type="line"/>
      <point x="131" y="745" type="line"/>
      <point x="131" y="745"/>
      <point x="406" y="745"/>
      <point x="406" y="746" type="curve" smooth="yes"/>
    </contour>
  </outline>
</glyph>
<glyph name="section" format="1">
  <advance width="928"/>
  <unicode hex="00A7"/>
  <outline>
    <contour>
      <point x="498" y="-25" type="curve" smooth="yes"/>
      <point x="693" y="-25"/>
      <point x="793" y="104"/>
      <point x="793" y="236" type="curve" smooth="yes"/>
      <point x="793" y="300"/>
      <point x="755" y="361"/>
      <point x="698" y="412" type="curve"/>
      <point x="769" y="465"/>
      <point x="810" y="542"/>
      <point x="810" y="619" type="curve" smooth="yes"/>
      <point x="810" y="694"/>
      <point x="772" y="768"/>
      <point x="687" y="821" type="curve" smooth="yes"/>
      <point x="434" y="975" type="line" smooth="yes"/>
      <point x="413" y="987"/>
      <point x="403" y="1005"/>
      <point x="403" y="1021" type="curve" smooth="yes"/>
      <point x="403" y="1052"/>
      <point x="436" y="1074"/>
      <point x="484" y="1074" type="curve" smooth="yes"/>
      <point x="584" y="1074"/>
      <point x="718" y="1004"/>
      <point x="718" y="1004" type="curve"/>
      <point x="769" y="1193" type="line"/>
      <point x="758" y="1201"/>
      <point x="637" y="1274"/>
      <point x="456" y="1274" type="curve" smooth="yes"/>
      <point x="258" y="1274"/>
      <point x="145" y="1148"/>
      <point x="145" y="1014" type="curve" smooth="yes"/>
      <point x="145" y="948"/>
      <point x="177" y="884"/>
      <point x="234" y="831" type="curve"/>
      <point x="165" y="775"/>
      <point x="131" y="708"/>
      <point x="131" y="642" type="curve" smooth="yes"/>
      <point x="131" y="565"/>
      <point x="178" y="489"/>
      <point x="274" y="431" type="curve" smooth="yes"/>
      <point x="488" y="288" type="line" smooth="yes"/>
      <point x="512" y="272"/>
      <point x="525" y="257"/>
      <point x="525" y="236" type="curve" smooth="yes"/>
      <point x="525" y="201"/>
      <point x="499" y="188"/>
      <point x="461" y="188" type="curve" smooth="yes"/>
      <point x="354" y="188"/>
      <point x="148" y="292"/>
      <point x="148" y="292" type="curve"/>
      <point x="121" y="91" type="line"/>
      <point x="128" y="84"/>
      <point x="267" y="-25"/>
    </contour>
    <contour>
      <point x="581" y="492" type="curve"/>
      <point x="345" y="640" type="line" smooth="yes"/>
      <point x="324" y="653"/>
      <point x="314" y="669"/>
      <point x="314" y="685" type="curve" smooth="yes"/>
      <point x="314" y="706"/>
      <point x="331" y="728"/>
      <point x="358" y="747" type="curve"/>
      <point x="589" y="607" type="line" smooth="yes"/>
      <point x="615" y="591"/>
      <point x="626" y="571"/>
      <point x="626" y="552" type="curve" smooth="yes"/>
      <point x="626" y="529"/>
      <point x="610" y="507"/>
    </contour>
  </outline>
</glyph>
<glyph name="dieresis" format="1">
  <advance width="1073"/>
  <unicode hex="00A8"/>
  <outline>
    <contour>
      <point x="778" y="-16" type="curve" smooth="yes"/>
      <point x="872" y="-16"/>
      <point x="927" y="57"/>
      <point x="927" y="130" type="curve" smooth="yes"/>
      <point x="927" y="201"/>
      <point x="873" y="277"/>
      <point x="778" y="277" type="curve" smooth="yes"/>
      <point x="683" y="277"/>
      <point x="628" y="202"/>
      <point x="628" y="130" type="curve" smooth="yes"/>
      <point x="628" y="56"/>
      <point x="684" y="-16"/>
    </contour>
    <contour>
      <point x="296" y="-16" type="curve" smooth="yes"/>
      <point x="391" y="-16"/>
      <point x="445" y="57"/>
      <point x="445" y="130" type="curve" smooth="yes"/>
      <point x="445" y="201"/>
      <point x="391" y="277"/>
      <point x="296" y="277" type="curve" smooth="yes"/>
      <point x="201" y="277"/>
      <point x="146" y="202"/>
      <point x="146" y="130" type="curve" smooth="yes"/>
      <point x="146" y="56"/>
      <point x="202" y="-16"/>
    </contour>
    <contour>
      <point x="536.5" y="884" type="move" name="_top"/>
    </contour>
  </outline>
</glyph>
<glyph name="copyright" format="1">
  <advance width="1680"/>
  <unicode hex="00A9"/>
  <outline>
    <contour>
      <point x="840" y="26" type="curve" smooth="yes"/>
      <point x="537" y="26"/>
      <point x="236" y="224"/>
      <point x="236" y="621" type="curve" smooth="yes"/>
      <point x="236" y="1019"/>
      <point x="537" y="1217"/>
      <point x="839" y="1217" type="curve" smooth="yes"/>
      <point x="1142" y="1217"/>
      <point x="1444" y="1019"/>
      <point x="1444" y="624" type="curve" smooth="yes"/>
      <point x="1444" y="224"/>
      <point x="1142" y="26"/>
    </contour>
    <contour>
      <point x="840" y="-98" type="curve" smooth="yes"/>
      <point x="1205" y="-98"/>
      <point x="1571" y="141"/>
      <point x="1571" y="624" type="curve" smooth="yes"/>
      <point x="1571" y="1101"/>
      <point x="1205" y="1341"/>
      <point x="839" y="1341" type="curve" smooth="yes"/>
      <point x="474" y="1341"/>
      <point x="109" y="1102"/>
      <point x="109" y="621" type="curve" smooth="yes"/>
      <point x="109" y="141"/>
      <point x="474" y="-98"/>
    </contour>
    <contour>
      <point x="853" y="153" type="curve" smooth="yes"/>
      <point x="1017" y="153"/>
      <point x="1157" y="226"/>
      <point x="1157" y="226" type="curve"/>
      <point x="1157" y="432" type="line"/>
      <point x="1079" y="375"/>
      <point x="975" y="341"/>
      <point x="876" y="341" type="curve" smooth="yes"/>
      <point x="726" y="341"/>
      <point x="591" y="421"/>
      <point x="591" y="625" type="curve" smooth="yes"/>
      <point x="591" y="829"/>
      <point x="726" y="907"/>
      <point x="876" y="907" type="curve" smooth="yes"/>
      <point x="975" y="907"/>
      <point x="1079" y="873"/>
      <point x="1157" y="816" type="curve"/>
      <point x="1157" y="1022" type="line"/>
      <point x="1157" y="1022"/>
      <point x="1017" y="1095"/>
      <point x="853" y="1095" type="curve" smooth="yes"/>
      <point x="574" y="1095"/>
      <point x="367" y="916"/>
      <point x="367" y="625" type="curve" smooth="yes"/>
      <point x="367" y="335"/>
      <point x="574" y="153"/>
    </contour>
  </outline>
</glyph>
<glyph name="guillemotleft" format="1">
  <advance width="1045"/>
  <unicode hex="00AB"/>
  <outline>
    <contour>
      <point x="891" y="156" type="curve" smooth="yes"/>
      <point x="915" y="156"/>
      <point x="931" y="173"/>
      <point x="931" y="193" type="curve" smooth="yes"/>
      <point x="931" y="206"/>
      <point x="925" y="220"/>
      <point x="911" y="233" type="curve"/>
      <point x="702" y="526" type="line"/>
      <point x="911" y="819" type="line"/>
      <point x="925" y="832"/>
      <point x="931" y="846"/>
      <point x="931" y="859" type="curve" smooth="yes"/>
      <point x="931" y="879"/>
      <point x="915" y="895"/>
      <point x="891" y="895" type="curve" smooth="yes"/>
      <point x="882" y="895"/>
      <point x="871" y="893"/>
      <point x="860" y="888" type="curve"/>
      <point x="549" y="651" type="line"/>
      <point x="497" y="619"/>
      <point x="469" y="572"/>
      <point x="469" y="526" type="curve" smooth="yes"/>
      <point x="469" y="480"/>
      <point x="496" y="434"/>
      <point x="549" y="401" type="curve"/>
      <point x="860" y="164" type="line"/>
      <point x="871" y="159"/>
      <point x="882" y="156"/>
    </contour>
    <contour>
      <point x="518" y="156" type="curve" smooth="yes"/>
      <point x="542" y="156"/>
      <point x="558" y="173"/>
      <point x="558" y="193" type="curve" smooth="yes"/>
      <point x="558" y="206"/>
      <point x="552" y="220"/>
      <point x="538" y="233" type="curve"/>
      <point x="329" y="526" type="line"/>
      <point x="538" y="819" type="line"/>
      <point x="552" y="832"/>
      <point x="558" y="846"/>
      <point x="558" y="859" type="curve" smooth="yes"/>
      <point x="558" y="879"/>
      <point x="542" y="895"/>
      <point x="518" y="895" type="curve" smooth="yes"/>
      <point x="509" y="895"/>
      <point x="498" y="893"/>
      <point x="487" y="888" type="curve"/>
      <point x="176" y="651" type="line"/>
      <point x="124" y="619"/>
      <point x="96" y="572"/>
      <point x="96" y="526" type="curve" smooth="yes"/>
      <point x="96" y="480"/>
      <point x="123" y="434"/>
      <point x="176" y="401" type="curve"/>
      <point x="487" y="164" type="line"/>
      <point x="498" y="159"/>
      <point x="509" y="156"/>
    </contour>
  </outline>
</glyph>
<glyph name="logicalnot" format="1">
  <advance width="1005"/>
  <unicode hex="00AC"/>
  <outline>
    <contour>
      <point x="106" y="629" type="line"/>
      <point x="692" y="629" type="line"/>
      <point x="692" y="287" type="line"/>
      <point x="887" y="287" type="line"/>
      <point x="887" y="824" type="line"/>
      <point x="106" y="824" type="line"/>
    </contour>
  </outline>
</glyph>
<glyph name="registered" format="1">
  <advance width="1718"/>
  <unicode hex="00AE"/>
  <outline>
    <contour>
      <point x="818" y="1068" type="curve" smooth="yes"/>
      <point x="555" y="1068" type="line"/>
      <point x="555" y="174" type="line"/>
      <point x="772" y="174" type="line"/>
      <point x="772" y="550" type="line"/>
      <point x="774" y="550" type="line"/>
      <point x="966" y="174" type="line"/>
      <point x="1213" y="174" type="line"/>
      <point x="974" y="587" type="line"/>
      <point x="1096" y="619"/>
      <point x="1158" y="707"/>
      <point x="1158" y="806" type="curve" smooth="yes"/>
      <point x="1158" y="993"/>
      <point x="999" y="1068"/>
    </contour>
    <contour>
      <point x="788" y="660" type="curve" smooth="yes"/>
      <point x="771" y="660" type="line"/>
      <point x="771" y="928" type="line"/>
      <point x="785" y="928" type="line" smooth="yes"/>
      <point x="897" y="928"/>
      <point x="954" y="876"/>
      <point x="954" y="802" type="curve" smooth="yes"/>
      <point x="954" y="719"/>
      <point x="874" y="660"/>
    </contour>
    <contour>
      <point x="859" y="16" type="curve" smooth="yes"/>
      <point x="556" y="16"/>
      <point x="255" y="224"/>
      <point x="255" y="621" type="curve" smooth="yes"/>
      <point x="255" y="1019"/>
      <point x="556" y="1227"/>
      <point x="858" y="1227" type="curve" smooth="yes"/>
      <point x="1161" y="1227"/>
      <point x="1463" y="1019"/>
      <point x="1463" y="624" type="curve" smooth="yes"/>
      <point x="1463" y="224"/>
      <point x="1161" y="16"/>
    </contour>
    <contour>
      <point x="859" y="-98" type="curve" smooth="yes"/>
      <point x="1224" y="-98"/>
      <point x="1610" y="141"/>
      <point x="1610" y="624" type="curve" smooth="yes"/>
      <point x="1610" y="1101"/>
      <point x="1224" y="1341"/>
      <point x="858" y="1341" type="curve" smooth="yes"/>
      <point x="493" y="1341"/>
      <point x="108" y="1102"/>
      <point x="108" y="621" type="curve" smooth="yes"/>
      <point x="108" y="141"/>
      <point x="493" y="-98"/>
    </contour>
  </outline>
</glyph>
<glyph name="macron" format="1">
  <advance width="1259"/>
  <unicode hex="00AF"/>
  <outline>
    <contour>
      <point x="100" y="884" type="move" name="_top"/>
    </contour>
    <component base="minus"/>
  </outline>
</glyph>
<glyph name="plusminus" format="1">
  <advance width="1020"/>
  <unicode hex="00B1"/>
  <outline>
    <contour>
      <point x="121" y="649" type="line"/>
      <point x="425" y="649" type="line"/>
      <point x="425" y="345" type="line"/>
      <point x="593" y="345" type="line"/>
      <point x="593" y="649" type="line"/>
      <point x="896" y="649" type="line"/>
      <point x="896" y="817" type="line"/>
      <point x="592" y="817" type="line"/>
      <point x="592" y="1121" type="line"/>
      <point x="425" y="1121" type="line"/>
      <point x="425" y="817" type="line"/>
      <point x="121" y="817" type="line"/>
    </contour>
    <contour>
      <point x="896" y="167" type="line"/>
      <point x="121" y="167" type="line"/>
      <point x="121" y="-1" type="line"/>
      <point x="896" y="-1" type="line"/>
    </contour>
  </outline>
</glyph>
<glyph name="acute" format="1">
  <advance width="525"/>
  <unicode hex="00B4"/>
  <outline>
    <contour>
      <point x="262.068" y="884" type="move" name="_top"/>
    </contour>
    <contour>
      <point x="106.438" y="89.5977" type="curve" smooth="yes"/>
      <point x="119.087" y="89.5977"/>
      <point x="133.422" y="95.7734"/>
      <point x="146.676" y="110" type="curve" smooth="yes"/>
      <point x="405.676" y="388" type="line" smooth="yes"/>
      <point x="440.128" y="424.979"/>
      <point x="454.136" y="462.149"/>
      <point x="454.136" y="494.491" type="curve" smooth="yes"/>
      <point x="454.136" y="551.171"/>
      <point x="411.111" y="593.02"/>
      <point x="359.714" y="593.02" type="curve" smooth="yes"/>
      <point x="317.232" y="593.02"/>
      <point x="269.031" y="564.432"/>
      <point x="234.676" y="492" type="curve" smooth="yes"/>
      <point x="77.6758" y="161" type="line" smooth="yes"/>
      <point x="72.3418" y="149.755"/>
      <point x="70" y="139.268"/>
      <point x="70" y="129.98" type="curve" smooth="yes"/>
      <point x="70" y="105.687"/>
      <point x="86.0234" y="89.5977"/>
    </contour>
  </outline>
</glyph>
<glyph name="paragraph" format="1">
  <advance width="1125"/>
  <unicode hex="00B6"/>
  <outline>
    <contour>
      <point x="577" y="572" type="curve"/>
      <point x="577" y="1" type="line"/>
      <point x="729" y="1" type="line"/>
      <point x="729" y="1087" type="line"/>
      <point x="845" y="1087" type="line"/>
      <point x="843" y="1" type="line"/>
      <point x="995" y="1" type="line"/>
      <point x="995" y="1241" type="line"/>
      <point x="546" y="1241" type="line" smooth="yes"/>
      <point x="297" y="1241"/>
      <point x="105" y="1216"/>
      <point x="105" y="903" type="curve" smooth="yes"/>
      <point x="105" y="645"/>
      <point x="314" y="572"/>
      <point x="537" y="572" type="curve" smooth="yes"/>
      <point x="605" y="572"/>
      <point x="577" y="572"/>
    </contour>
  </outline>
</glyph>
<glyph name="questiondown" format="1">
  <advance width="922"/>
  <unicode hex="00BF"/>
  <outline>
    <contour>
      <point x="472" y="-387" type="curve" smooth="yes"/>
      <point x="660" y="-387"/>
      <point x="851" y="-259"/>
      <point x="851" y="-259" type="curve"/>
      <point x="756" y="-44" type="line"/>
      <point x="756" y="-44"/>
      <point x="609" y="-128"/>
      <point x="507" y="-128" type="curve" smooth="yes"/>
      <point x="431" y="-128"/>
      <point x="386" y="-84"/>
      <point x="386" y="-6" type="curve" smooth="yes"/>
      <point x="386" y="81"/>
      <point x="437" y="166"/>
      <point x="707" y="476" type="curve"/>
      <point x="496" y="476" type="line"/>
      <point x="171" y="222"/>
      <point x="84" y="74"/>
      <point x="84" y="-60" type="curve" smooth="yes"/>
      <point x="84" y="-255"/>
      <point x="222" y="-387"/>
    </contour>
    <component base="period" xScale="-1" yScale="-1" xOffset="936" yOffset="889"/>
  </outline>
</glyph>
<glyph name="AE" format="1">
  <advance width="1284"/>
  <unicode hex="00C6"/>
  <outline>
    <contour>
      <point x="37" y="0" type="line"/>
      <point x="362" y="0" type="line"/>
      <point x="483" y="290" type="line"/>
      <point x="703" y="290" type="line"/>
      <point x="705" y="140" type="line"/>
      <point x="889" y="140" type="line"/>
      <point x="634" y="1241" type="line"/>
    </contour>
    <contour>
      <point x="536" y="474" type="line"/>
      <point x="637" y="737" type="line"/>
      <point x="748" y="474" type="line"/>
    </contour>
    <component base="E" xOffset="496"/>
    <contour>
      <point x="642" y="1241" type="move" name="top"/>
    </contour>
  </outline>
</glyph>
<glyph name="Eth" format="1">
  <advance width="1402"/>
  <unicode hex="00D0"/>
  <outline>
    <contour>
      <point x="0" y="547" type="line"/>
      <point x="675" y="547" type="line"/>
      <point x="675" y="715" type="line"/>
      <point x="0" y="715" type="line"/>
    </contour>
    <component base="D"/>
  </outline>
</glyph>
<glyph name="multiply" format="1">
  <advance width="842"/>
  <unicode hex="00D7"/>
  <outline>
    <contour>
      <point x="284" y="562" type="line"/>
      <point x="110" y="388" type="line"/>
      <point x="248" y="250" type="line"/>
      <point x="421" y="424" type="line"/>
      <point x="595" y="250" type="line"/>
      <point x="733" y="388" type="line"/>
      <point x="559" y="562" type="line"/>
      <point x="733" y="735" type="line"/>
      <point x="595" y="873" type="line"/>
      <point x="421" y="699" type="line"/>
      <point x="248" y="873" type="line"/>
      <point x="110" y="735" type="line"/>
    </contour>
  </outline>
</glyph>
<glyph name="Oslash" format="1">
  <advance width="1162"/>
  <unicode hex="00D8"/>
  <outline>
    <contour>
      <point x="767" y="1241" type="move" name="top"/>
    </contour>
    <contour>
      <point x="999" y="1351" type="line"/>
      <point x="74" y="-39" type="line"/>
      <point x="182" y="-106" type="line"/>
      <point x="1107" y="1284" type="line"/>
    </contour>
    <component base="O"/>
  </outline>
</glyph>
<glyph name="Thorn" format="1">
  <advance width="1073"/>
  <unicode hex="00DE"/>
  <outline>
    <contour>
      <point x="431" y="1241" type="line"/>
      <point x="131" y="1241" type="line"/>
      <point x="131" y="0" type="line"/>
      <point x="433" y="0" type="line"/>
      <point x="433" y="285" type="line"/>
      <point x="450" y="285" type="line" smooth="yes"/>
      <point x="606" y="285"/>
      <point x="969" y="292"/>
      <point x="969" y="652" type="curve" smooth="yes"/>
      <point x="969" y="912"/>
      <point x="772" y="1032"/>
      <point x="497" y="1032" type="curve" smooth="yes"/>
      <point x="431" y="1032" type="line"/>
    </contour>
    <contour>
      <point x="467" y="443" type="curve" smooth="yes"/>
      <point x="431" y="443" type="line"/>
      <point x="431" y="838" type="line"/>
      <point x="451" y="838" type="line" smooth="yes"/>
      <point x="622" y="838"/>
      <point x="685" y="750"/>
      <point x="685" y="647" type="curve" smooth="yes"/>
      <point x="685" y="532"/>
      <point x="607" y="443"/>
    </contour>
  </outline>
</glyph>
<glyph name="germandbls" format="1">
  <advance width="1179"/>
  <unicode hex="00DF"/>
  <outline>
    <contour>
      <point x="732" y="-33" type="curve" smooth="yes"/>
      <point x="922" y="-33"/>
      <point x="1068" y="60"/>
      <point x="1068" y="299" type="curve" smooth="yes"/>
      <point x="1068" y="428"/>
      <point x="1034" y="529"/>
      <point x="793" y="680" type="curve"/>
      <point x="917" y="741"/>
      <point x="960" y="823"/>
      <point x="960" y="920" type="curve" smooth="yes"/>
      <point x="960" y="1100"/>
      <point x="817" y="1241"/>
      <point x="524" y="1241" type="curve" smooth="yes"/>
      <point x="286" y="1241"/>
      <point x="127" y="1074"/>
      <point x="127" y="889" type="curve" smooth="yes"/>
      <point x="127" y="0" type="line"/>
      <point x="427" y="0" type="line"/>
      <point x="427" y="888" type="line" smooth="yes"/>
      <point x="427" y="963"/>
      <point x="476" y="1030"/>
      <point x="559" y="1030" type="curve" smooth="yes"/>
      <point x="647" y="1030"/>
      <point x="706" y="988"/>
      <point x="706" y="901" type="curve" smooth="yes"/>
      <point x="706" y="783"/>
      <point x="608" y="763"/>
      <point x="517" y="761" type="curve"/>
      <point x="517" y="557" type="line"/>
      <point x="699" y="445" type="line" smooth="yes"/>
      <point x="792" y="386"/>
      <point x="793" y="345"/>
      <point x="793" y="313" type="curve" smooth="yes"/>
      <point x="793" y="251"/>
      <point x="755" y="215"/>
      <point x="677" y="215" type="curve" smooth="yes"/>
      <point x="592" y="215"/>
      <point x="485" y="265"/>
      <point x="484" y="265" type="curve"/>
      <point x="484" y="20" type="line"/>
      <point x="484" y="20"/>
      <point x="558" y="-33"/>
    </contour>
  </outline>
</glyph>
<glyph name="ae" format="1">
  <advance width="1525"/>
  <unicode hex="00E6"/>
  <outline>
    <contour>
      <point x="757" y="884" type="move" name="top"/>
    </contour>
    <contour>
      <point x="379" y="-25" type="curve" smooth="yes"/>
      <point x="518" y="-25"/>
      <point x="633" y="51"/>
      <point x="701" y="127" type="curve"/>
      <point x="799" y="24"/>
      <point x="946" y="-27"/>
      <point x="1095" y="-27" type="curve" smooth="yes"/>
      <point x="1204" y="-27"/>
      <point x="1306" y="3"/>
      <point x="1396" y="56" type="curve"/>
      <point x="1396" y="285" type="line"/>
      <point x="1332" y="238"/>
      <point x="1235" y="196"/>
      <point x="1119" y="196" type="curve" smooth="yes"/>
      <point x="995" y="196"/>
      <point x="889" y="243"/>
      <point x="857" y="389" type="curve"/>
      <point x="1407" y="389" type="line"/>
      <point x="1407" y="456" type="line" smooth="yes"/>
      <point x="1407" y="703"/>
      <point x="1295" y="903"/>
      <point x="1012" y="903" type="curve" smooth="yes"/>
      <point x="909" y="903"/>
      <point x="798" y="864"/>
      <point x="731" y="803" type="curve"/>
      <point x="671" y="875"/>
      <point x="575" y="904"/>
      <point x="486" y="904" type="curve" smooth="yes"/>
      <point x="272" y="904"/>
      <point x="130" y="803"/>
      <point x="120" y="794" type="curve"/>
      <point x="197" y="582" type="line"/>
      <point x="239" y="605"/>
      <point x="360" y="676"/>
      <point x="457" y="676" type="curve" smooth="yes"/>
      <point x="518" y="676"/>
      <point x="578" y="649"/>
      <point x="578" y="549" type="curve" smooth="yes"/>
      <point x="578" y="529" type="line"/>
      <point x="467" y="506" type="line" smooth="yes"/>
      <point x="237" y="452"/>
      <point x="115" y="350"/>
      <point x="115" y="230" type="curve" smooth="yes"/>
      <point x="115" y="67"/>
      <point x="242" y="-25"/>
    </contour>
    <contour>
      <point x="448" y="157" type="curve" smooth="yes"/>
      <point x="412" y="157"/>
      <point x="384" y="191"/>
      <point x="384" y="243" type="curve" smooth="yes"/>
      <point x="384" y="280"/>
      <point x="414" y="331"/>
      <point x="494" y="374" type="curve" smooth="yes"/>
      <point x="513" y="385"/>
      <point x="554" y="395"/>
      <point x="580" y="404" type="curve"/>
      <point x="585" y="343"/>
      <point x="600" y="288"/>
      <point x="623" y="240" type="curve"/>
      <point x="579" y="201"/>
      <point x="511" y="157"/>
    </contour>
    <contour>
      <point x="1180" y="566" type="curve"/>
      <point x="869" y="566" type="line"/>
      <point x="892" y="648"/>
      <point x="953" y="701"/>
      <point x="1040" y="701" type="curve" smooth="yes"/>
      <point x="1115" y="701"/>
      <point x="1168" y="663"/>
    </contour>
  </outline>
</glyph>
<glyph name="eth" format="1">
  <advance width="1160"/>
  <unicode hex="00F0"/>
  <outline>
    <contour>
      <point x="580" y="-25" type="curve" smooth="yes"/>
      <point x="850" y="-25"/>
      <point x="1055" y="160"/>
      <point x="1055" y="392" type="curve" smooth="yes"/>
      <point x="1055" y="556"/>
      <point x="991" y="672"/>
      <point x="869" y="835" type="curve" smooth="yes"/>
      <point x="792" y="939"/>
      <point x="525" y="1241"/>
      <point x="525" y="1241" type="curve"/>
      <point x="212" y="1241" type="line"/>
      <point x="583" y="803" type="line"/>
      <point x="563" y="806"/>
      <point x="534" y="809"/>
      <point x="514" y="809" type="curve" smooth="yes"/>
      <point x="300" y="809"/>
      <point x="109" y="642"/>
      <point x="109" y="400" type="curve" smooth="yes"/>
      <point x="109" y="139"/>
      <point x="324" y="-25"/>
    </contour>
    <contour>
      <point x="586" y="201" type="curve" smooth="yes"/>
      <point x="456" y="201"/>
      <point x="380" y="298"/>
      <point x="380" y="401" type="curve" smooth="yes"/>
      <point x="380" y="508"/>
      <point x="453" y="600"/>
      <point x="580" y="600" type="curve" smooth="yes"/>
      <point x="712" y="600"/>
      <point x="780" y="497"/>
      <point x="780" y="394" type="curve" smooth="yes"/>
      <point x="780" y="298"/>
      <point x="717" y="201"/>
    </contour>
    <contour>
      <point x="742" y="1241" type="line"/>
      <point x="290" y="929" type="line"/>
      <point x="341" y="865" type="line"/>
      <point x="793" y="1177" type="line"/>
    </contour>
  </outline>
</glyph>
<glyph name="oslash" format="1">
  <advance width="921"/>
  <unicode hex="00F8"/>
  <outline>
    <contour>
      <point x="573" y="884" type="move" name="top"/>
    </contour>
    <contour>
      <point x="752" y="972" type="line"/>
      <point x="830" y="919" type="line"/>
      <point x="150" y="-102" type="line"/>
      <point x="72" y="-49" type="line"/>
    </contour>
    <component base="o"/>
  </outline>
</glyph>
<glyph name="thorn" format="1">
  <advance width="1129"/>
  <unicode hex="00FE"/>
  <outline>
    <contour>
      <point x="408" y="1241" type="line"/>
      <point x="132" y="1241" type="line"/>
      <point x="132" y="-364" type="line"/>
      <point x="408" y="-364" type="line"/>
      <point x="408" y="-2" type="line"/>
      <point x="408" y="-2"/>
      <point x="476" y="-12"/>
      <point x="534" y="-12" type="curve" smooth="yes"/>
      <point x="837" y="-12"/>
      <point x="1022" y="173"/>
      <point x="1022" y="451" type="curve" smooth="yes"/>
      <point x="1022" y="705"/>
      <point x="869" y="906"/>
      <point x="623" y="906" type="curve" smooth="yes"/>
      <point x="516" y="906"/>
      <point x="445" y="866"/>
      <point x="408" y="832" type="curve"/>
    </contour>
    <contour>
      <point x="487" y="191" type="curve" smooth="yes"/>
      <point x="462" y="191"/>
      <point x="438" y="192"/>
      <point x="408" y="196" type="curve"/>
      <point x="408" y="646" type="line"/>
      <point x="458" y="669"/>
      <point x="504" y="680"/>
      <point x="547" y="680" type="curve" smooth="yes"/>
      <point x="669" y="680"/>
      <point x="752" y="593"/>
      <point x="752" y="453" type="curve" smooth="yes"/>
      <point x="752" y="274"/>
      <point x="653" y="191"/>
    </contour>
  </outline>
</glyph>
<glyph name="dcroat" format="1">
  <advance width="1094"/>
  <unicode hex="0111"/>
  <outline>
    <contour>
      <point x="425" y="1015" type="line"/>
      <point x="1096" y="1015" type="line"/>
      <point x="1096" y="1140" type="line"/>
      <point x="425" y="1140" type="line"/>
    </contour>
    <component base="d"/>
  </outline>
</glyph>
<glyph name="dotlessi" format="1">
  <advance width="549"/>
  <unicode hex="0131"/>
  <outline>
    <contour>
      <point x="138" y="0" type="line"/>
      <point x="411" y="0" type="line"/>
      <point x="411" y="876" type="line"/>
      <point x="138" y="876" type="line"/>
    </contour>
    <contour>
      <point x="275" y="884" type="move" name="top"/>
    </contour>
    <contour>
      <point x="494" y="10" type="move" name="ogonek"/>
    </contour>
  </outline>
</glyph>
<glyph name="kgreenlandic" format="1">
  <advance width="1187"/>
  <unicode hex="0138"/>
  <outline>
    <contour>
      <point x="400" y="875" type="line"/>
      <point x="125" y="875" type="line"/>
      <point x="125" y="0" type="line"/>
      <point x="400" y="0" type="line"/>
      <point x="400" y="372" type="line"/>
      <point x="731" y="0" type="line"/>
      <point x="1083" y="0" type="line"/>
      <point x="670" y="453" type="line"/>
      <point x="1034" y="875" type="line"/>
      <point x="690" y="875" type="line"/>
      <point x="400" y="521" type="line"/>
    </contour>
  </outline>
</glyph>
<glyph name="OE" format="1">
  <advance width="1929"/>
  <unicode hex="0152"/>
  <outline>
    <contour>
      <point x="721" y="-33" type="curve" smooth="yes"/>
      <point x="872.053" y="-33"/>
      <point x="999.714" y="12.1271"/>
      <point x="1094" y="102.664" type="curve"/>
      <point x="1094" y="0" type="line"/>
      <point x="1827" y="0" type="line"/>
      <point x="1827" y="266" type="line"/>
      <point x="1386" y="266" type="line"/>
      <point x="1386" y="512" type="line"/>
      <point x="1751" y="512" type="line"/>
      <point x="1751" y="764" type="line"/>
      <point x="1388" y="764" type="line"/>
      <point x="1388" y="985" type="line"/>
      <point x="1817" y="985" type="line"/>
      <point x="1817" y="1241" type="line"/>
      <point x="1094" y="1241" type="line"/>
      <point x="1094" y="1140.65" type="line"/>
      <point x="999.563" y="1230.82"/>
      <point x="871.594" y="1276"/>
      <point x="720" y="1276" type="curve" smooth="yes"/>
      <point x="388" y="1276"/>
      <point x="74" y="1058"/>
      <point x="74" y="621" type="curve" smooth="yes"/>
      <point x="74" y="185"/>
      <point x="388" y="-33"/>
    </contour>
    <contour>
      <point x="738" y="226" type="curve" smooth="yes"/>
      <point x="561" y="226"/>
      <point x="384" y="362"/>
      <point x="384" y="620" type="curve" smooth="yes"/>
      <point x="384" y="879"/>
      <point x="561" y="1017"/>
      <point x="739" y="1017" type="curve" smooth="yes"/>
      <point x="916" y="1017"/>
      <point x="1094" y="879"/>
      <point x="1094" y="619" type="curve" smooth="yes"/>
      <point x="1094" y="363"/>
      <point x="916" y="226"/>
    </contour>
    <contour>
      <point x="965" y="1241" type="move" name="top"/>
    </contour>
  </outline>
</glyph>
<glyph name="oe" format="1">
  <advance width="1730"/>
  <unicode hex="0153"/>
  <outline>
    <contour>
      <point x="1090" y="566" type="line"/>
      <point x="1113" y="648"/>
      <point x="1187" y="701"/>
      <point x="1274" y="701" type="curve" smooth="yes"/>
      <point x="1349" y="701"/>
      <point x="1408" y="663"/>
      <point x="1420" y="566" type="curve"/>
    </contour>
    <contour>
      <point x="565" y="-25" type="curve" smooth="yes"/>
      <point x="729.863" y="-25"/>
      <point x="861.13" y="41.9992"/>
      <point x="933.365" y="156.044" type="curve"/>
      <point x="1020.65" y="33.5404"/>
      <point x="1166.2" y="-27"/>
      <point x="1329" y="-27" type="curve" smooth="yes"/>
      <point x="1438" y="-27"/>
      <point x="1546" y="3"/>
      <point x="1636" y="56" type="curve"/>
      <point x="1636" y="285" type="line"/>
      <point x="1572" y="238"/>
      <point x="1469" y="196"/>
      <point x="1353" y="196" type="curve" smooth="yes"/>
      <point x="1229" y="196"/>
      <point x="1110" y="243"/>
      <point x="1078" y="389" type="curve"/>
      <point x="1647" y="389" type="line"/>
      <point x="1647" y="456" type="line" smooth="yes"/>
      <point x="1647" y="703"/>
      <point x="1529" y="903"/>
      <point x="1246" y="903" type="curve" smooth="yes"/>
      <point x="1097.77" y="903"/>
      <point x="990.521" y="836.794"/>
      <point x="924.966" y="736.246" type="curve"/>
      <point x="851.75" y="841.627"/>
      <point x="723.61" y="903"/>
      <point x="565" y="903" type="curve" smooth="yes"/>
      <point x="290.306" y="903"/>
      <point x="79" y="718.917"/>
      <point x="79" y="440.958" type="curve" smooth="yes"/>
      <point x="79" y="161.112"/>
      <point x="290.226" y="-25"/>
    </contour>
    <contour>
      <point x="573" y="201" type="curve" smooth="yes"/>
      <point x="423.861" y="201"/>
      <point x="347" y="317.768"/>
      <point x="347" y="439" type="curve" smooth="yes"/>
      <point x="347" y="558.407"/>
      <point x="421.939" y="677"/>
      <point x="573" y="677" type="curve" smooth="yes"/>
      <point x="724.061" y="677"/>
      <point x="799" y="558.407"/>
      <point x="799" y="439" type="curve" smooth="yes"/>
      <point x="799" y="317.768"/>
      <point x="722.139" y="201"/>
    </contour>
    <contour>
      <point x="865" y="884" type="move" name="top"/>
    </contour>
  </outline>
</glyph>
<glyph name="florin" format="1">
  <advance width="1087"/>
  <unicode hex="0192"/>
  <outline>
    <contour>
      <point x="307" y="-325" type="curve" smooth="yes"/>
      <point x="473" y="-325"/>
      <point x="599" y="-222"/>
      <point x="623" y="0" type="curve" smooth="yes"/>
      <point x="693" y="661" type="line"/>
      <point x="849" y="661" type="line"/>
      <point x="867" y="811" type="line"/>
      <point x="711" y="811" type="line"/>
      <point x="722" y="942" type="line" smooth="yes"/>
      <point x="730" y="1034"/>
      <point x="800" y="1061"/>
      <point x="870" y="1061" type="curve" smooth="yes"/>
      <point x="912" y="1061"/>
      <point x="955" y="1051"/>
      <point x="986" y="1039" type="curve"/>
      <point x="1006" y="1227" type="line"/>
      <point x="1006" y="1227"/>
      <point x="908" y="1269"/>
      <point x="806" y="1269" type="curve" smooth="yes"/>
      <point x="587" y="1269"/>
      <point x="461" y="1152"/>
      <point x="443" y="942" type="curve" smooth="yes"/>
      <point x="432" y="811" type="line"/>
      <point x="317" y="811" type="line"/>
      <point x="299" y="661" type="line"/>
      <point x="417" y="661" type="line"/>
      <point x="346" y="-20" type="line" smooth="yes"/>
      <point x="338" y="-101"/>
      <point x="287" y="-125"/>
      <point x="233" y="-125" type="curve" smooth="yes"/>
      <point x="166" y="-125"/>
      <point x="94" y="-90"/>
      <point x="81" y="-83" type="curve"/>
      <point x="62" y="-263" type="line"/>
      <point x="148" y="-304"/>
      <point x="232" y="-325"/>
    </contour>
  </outline>
</glyph>
<glyph name="uni0237" format="1">
  <advance width="650"/>
  <unicode hex="0237"/>
  <outline>
    <contour>
      <point x="290" y="884" type="move" name="top"/>
    </contour>
    <contour>
      <point x="112" y="-112" type="curve" smooth="yes"/>
      <point x="71" y="-122" type="line"/>
      <point x="126" y="-346" type="line"/>
      <point x="465" y="-346"/>
      <point x="522" y="-147"/>
      <point x="522" y="-19" type="curve" smooth="yes"/>
      <point x="522" y="876" type="line"/>
      <point x="245" y="876" type="line"/>
      <point x="245" y="14" type="line" smooth="yes"/>
      <point x="245" y="-85"/>
      <point x="183" y="-95"/>
    </contour>
  </outline>
</glyph>
<glyph name="circumflex" format="1">
  <advance width="858"/>
  <unicode hex="02C6"/>
  <outline>
    <contour>
      <point x="428.499" y="884" type="move" name="_top"/>
    </contour>
    <contour>
      <point x="176" y="90" type="curve" smooth="yes"/>
      <point x="189" y="90"/>
      <point x="203" y="96"/>
      <point x="216" y="110" type="curve" smooth="yes"/>
      <point x="428.999" y="338.624" type="line"/>
      <point x="641.998" y="110" type="line" smooth="yes"/>
      <point x="654.998" y="96"/>
      <point x="668.998" y="90"/>
      <point x="681.998" y="90" type="curve" smooth="yes"/>
      <point x="701.998" y="90"/>
      <point x="717.998" y="106"/>
      <point x="717.998" y="130" type="curve" smooth="yes"/>
      <point x="717.998" y="139"/>
      <point x="715.998" y="150"/>
      <point x="710.998" y="161" type="curve" smooth="yes"/>
      <point x="553.998" y="492" type="line" smooth="yes"/>
      <point x="521.386" y="561.062"/>
      <point x="476.84" y="593"/>
      <point x="428.998" y="593" type="curve" smooth="yes"/>
      <point x="380.292" y="593"/>
      <point x="336.417" y="560.648"/>
      <point x="304" y="492" type="curve" smooth="yes"/>
      <point x="147" y="161" type="line" smooth="yes"/>
      <point x="142" y="150"/>
      <point x="139" y="139"/>
      <point x="139" y="130" type="curve" smooth="yes"/>
      <point x="139" y="106"/>
      <point x="156" y="90"/>
    </contour>
  </outline>
</glyph>
<glyph name="caron" format="1">
  <advance width="859"/>
  <unicode hex="02C7"/>
  <outline>
    <contour>
      <point x="429" y="90" type="curve" smooth="yes"/>
      <point x="477.706" y="90"/>
      <point x="521.581" y="122.352"/>
      <point x="553.998" y="191" type="curve" smooth="yes"/>
      <point x="710.998" y="522" type="line" smooth="yes"/>
      <point x="715.998" y="533"/>
      <point x="718.998" y="544"/>
      <point x="718.998" y="553" type="curve" smooth="yes"/>
      <point x="718.998" y="577"/>
      <point x="701.998" y="593"/>
      <point x="681.998" y="593" type="curve" smooth="yes"/>
      <point x="668.998" y="593"/>
      <point x="654.998" y="587"/>
      <point x="641.998" y="573" type="curve" smooth="yes"/>
      <point x="428.999" y="344.376" type="line"/>
      <point x="216" y="573" type="line" smooth="yes"/>
      <point x="203" y="587"/>
      <point x="189" y="593"/>
      <point x="176" y="593" type="curve" smooth="yes"/>
      <point x="156" y="593"/>
      <point x="140" y="577"/>
      <point x="140" y="553" type="curve" smooth="yes"/>
      <point x="140" y="544"/>
      <point x="142" y="533"/>
      <point x="147" y="522" type="curve" smooth="yes"/>
      <point x="304" y="191" type="line" smooth="yes"/>
      <point x="336.612" y="121.938"/>
      <point x="381.158" y="90"/>
    </contour>
    <contour>
      <point x="429.499" y="884" type="move" name="_top"/>
    </contour>
  </outline>
</glyph>
<glyph name="dotaccent" format="1">
  <advance width="628"/>
  <unicode hex="02D9"/>
  <outline>
    <component base="period" xOffset="43" yOffset="192"/>
    <contour>
      <point x="143" y="884" type="move" name="_top"/>
    </contour>
  </outline>
</glyph>
<glyph name="ring" format="1">
  <advance width="769"/>
  <unicode hex="02DA"/>
  <outline>
    <contour>
      <point x="384.5" y="884" type="move" name="_top"/>
    </contour>
    <contour>
      <point x="383" y="122" type="curve" smooth="yes"/>
      <point x="260" y="122"/>
      <point x="146" y="204"/>
      <point x="146" y="349" type="curve" smooth="yes"/>
      <point x="146" y="496"/>
      <point x="260" y="580"/>
      <point x="384" y="580" type="curve" smooth="yes"/>
      <point x="501" y="580"/>
      <point x="623" y="496"/>
      <point x="623" y="349" type="curve" smooth="yes"/>
      <point x="623" y="205"/>
      <point x="508" y="122"/>
    </contour>
    <contour>
      <point x="383" y="215" type="curve" smooth="yes"/>
      <point x="471" y="215"/>
      <point x="515" y="281"/>
      <point x="515" y="348" type="curve" smooth="yes"/>
      <point x="515" y="416"/>
      <point x="469" y="484"/>
      <point x="383" y="484" type="curve" smooth="yes"/>
      <point x="297" y="484"/>
      <point x="251" y="416"/>
      <point x="251" y="349" type="curve" smooth="yes"/>
      <point x="251" y="276"/>
      <point x="295" y="215"/>
    </contour>
  </outline>
</glyph>
<glyph name="tilde" format="1">
  <advance width="1006"/>
  <unicode hex="02DC"/>
  <outline>
    <contour>
      <point x="661" y="174" type="curve" smooth="yes"/>
      <point x="837" y="174"/>
      <point x="866" y="270"/>
      <point x="870" y="452" type="curve"/>
      <point x="742" y="452" type="line"/>
      <point x="729" y="378"/>
      <point x="727" y="356"/>
      <point x="687" y="356" type="curve" smooth="yes"/>
      <point x="636" y="356"/>
      <point x="504" y="466"/>
      <point x="348" y="466" type="curve" smooth="yes"/>
      <point x="172" y="466"/>
      <point x="143" y="370"/>
      <point x="139" y="188" type="curve"/>
      <point x="267" y="188" type="line"/>
      <point x="280" y="268"/>
      <point x="296" y="286"/>
      <point x="340" y="286" type="curve" smooth="yes"/>
      <point x="419" y="286"/>
      <point x="507" y="174"/>
    </contour>
  </outline>
</glyph>
<glyph name="hungarumlaut" format="1">
  <advance width="834"/>
  <unicode hex="02DD"/>
  <outline>
    <contour>
      <point x="485.744" y="884" type="move" name="_top"/>
    </contour>
    <component base="acute" xOffset="69.676"/>
    <component base="acute" xOffset="377.676"/>
  </outline>
</glyph>
<glyph name="uni030F" format="1">
  <advance width="834"/>
  <unicode hex="030F"/>
  <outline>
    <component base="acute" xOffset="594" xScale="-1"/>
    <component base="acute" xOffset="902" xScale="-1"/>
    <contour>
      <point x="485.932" y="884" type="move" name="_top"/>
    </contour>
  </outline>
</glyph>
<glyph name="uni0311" format="1">
  <advance width="712"/>
  <unicode hex="0311"/>
  <outline>
    <contour>
      <point x="212" y="120" type="curve"/>
      <point x="94" y="148" type="line"/>
      <point x="94" y="148"/>
      <point x="116" y="366"/>
      <point x="354" y="366" type="curve" smooth="yes"/>
      <point x="592" y="366"/>
      <point x="614" y="148"/>
      <point x="614" y="148" type="curve"/>
      <point x="496" y="120" type="line"/>
      <point x="496" y="120"/>
      <point x="472" y="239"/>
      <point x="354" y="239" type="curve" smooth="yes"/>
      <point x="236" y="239"/>
      <point x="212" y="120"/>
    </contour>
  </outline>
</glyph>
<glyph name="uni0326" format="1">
  <advance width="482"/>
  <unicode hex="0326"/>
  <outline>
    <contour>
      <point x="238.68" y="0" type="move" name="_bottom"/>
    </contour>
    <contour>
      <point x="137" y="-554" type="curve" smooth="yes"/>
      <point x="180" y="-554"/>
      <point x="229" y="-524"/>
      <point x="258" y="-447" type="curve" smooth="yes"/>
      <point x="386" y="-104" type="line"/>
      <point x="388" y="-97"/>
      <point x="390" y="-90"/>
      <point x="390" y="-83" type="curve" smooth="yes"/>
      <point x="390" y="-59"/>
      <point x="371" y="-43"/>
      <point x="350" y="-43" type="curve" smooth="yes"/>
      <point x="336" y="-43"/>
      <point x="321" y="-50"/>
      <point x="309" y="-66" type="curve" smooth="yes"/>
      <point x="82" y="-364" type="line" smooth="yes"/>
      <point x="54" y="-398"/>
      <point x="43" y="-430"/>
      <point x="43" y="-458" type="curve" smooth="yes"/>
      <point x="43" y="-514"/>
      <point x="87" y="-554"/>
    </contour>
  </outline>
</glyph>
<glyph name="mu" format="1">
  <advance width="1150"/>
  <unicode hex="03BC"/>
  <outline>
    <contour>
      <point x="110" y="-248" type="line"/>
      <point x="392" y="-248" type="line"/>
      <point x="392" y="210" type="line"/>
      <point x="110" y="299" type="line"/>
    </contour>
    <component base="u"/>
  </outline>
</glyph>
<glyph name="endash" format="1">
  <advance width="917"/>
  <unicode hex="2013"/>
  <outline>
    <contour>
      <point x="809" y="689" type="line"/>
      <point x="809" y="441" type="line"/>
      <point x="107" y="441" type="line"/>
      <point x="107" y="689" type="line"/>
    </contour>
  </outline>
</glyph>
<glyph name="emdash" format="1">
  <advance width="2048"/>
  <unicode hex="2014"/>
  <outline>
    <contour>
      <point x="188" y="441" type="line"/>
      <point x="188" y="689" type="line"/>
      <point x="1914" y="689" type="line"/>
      <point x="1914" y="441" type="line"/>
    </contour>
  </outline>
</glyph>
<glyph name="dagger" format="1">
  <advance width="982"/>
  <unicode hex="2020"/>
  <outline>
    <contour>
      <point x="104" y="770" type="line"/>
      <point x="408" y="770" type="line"/>
      <point x="408" y="0" type="line"/>
      <point x="576" y="0" type="line"/>
      <point x="576" y="770" type="line"/>
      <point x="879" y="770" type="line"/>
      <point x="879" y="938" type="line"/>
      <point x="575" y="938" type="line"/>
      <point x="575" y="1242" type="line"/>
      <point x="408" y="1242" type="line"/>
      <point x="408" y="938" type="line"/>
      <point x="104" y="938" type="line"/>
    </contour>
  </outline>
</glyph>
<glyph name="daggerdbl" format="1">
  <advance width="1011"/>
  <unicode hex="2021"/>
  <outline>
    <contour>
      <point x="119" y="290" type="line"/>
      <point x="423" y="290" type="line"/>
      <point x="423" y="0" type="line"/>
      <point x="591" y="0" type="line"/>
      <point x="591" y="290" type="line"/>
      <point x="894" y="290" type="line"/>
      <point x="894" y="458" type="line"/>
      <point x="591" y="458" type="line"/>
      <point x="591" y="770" type="line"/>
      <point x="894" y="770" type="line"/>
      <point x="894" y="938" type="line"/>
      <point x="590" y="938" type="line"/>
      <point x="590" y="1242" type="line"/>
      <point x="423" y="1242" type="line"/>
      <point x="423" y="938" type="line"/>
      <point x="119" y="938" type="line"/>
      <point x="119" y="770" type="line"/>
      <point x="423" y="770" type="line"/>
      <point x="423" y="458" type="line"/>
      <point x="119" y="458" type="line"/>
    </contour>
  </outline>
</glyph>
<glyph name="bullet" format="1">
  <advance width="727"/>
  <unicode hex="2022"/>
  <outline>
    <contour>
      <point x="360.697" y="396.8" type="curve" smooth="yes"/>
      <point x="470.539" y="396.8"/>
      <point x="581.4" y="471.841"/>
      <point x="581.4" y="617.385" type="curve" smooth="yes"/>
      <point x="581.4" y="765.199"/>
      <point x="471.837" y="839.663"/>
      <point x="362.632" y="839.663" type="curve" smooth="yes"/>
      <point x="254.14" y="839.663"/>
      <point x="146" y="766.167"/>
      <point x="146" y="618.085" type="curve" smooth="yes"/>
      <point x="146" y="469.13"/>
      <point x="252.857" y="396.8"/>
    </contour>
  </outline>
</glyph>
<glyph name="guilsinglleft" format="1">
  <advance width="599"/>
  <unicode hex="2039"/>
  <outline>
    <contour>
      <point x="491" y="156" type="curve" smooth="yes"/>
      <point x="515" y="156"/>
      <point x="531" y="173"/>
      <point x="531" y="193" type="curve" smooth="yes"/>
      <point x="531" y="206"/>
      <point x="525" y="220"/>
      <point x="511" y="233" type="curve"/>
      <point x="302" y="526" type="line"/>
      <point x="511" y="819" type="line"/>
      <point x="525" y="832"/>
      <point x="531" y="846"/>
      <point x="531" y="859" type="curve" smooth="yes"/>
      <point x="531" y="879"/>
      <point x="515" y="895"/>
      <point x="491" y="895" type="curve" smooth="yes"/>
      <point x="482" y="895"/>
      <point x="471" y="893"/>
      <point x="460" y="888" type="curve"/>
      <point x="149" y="651" type="line"/>
      <point x="97" y="619"/>
      <point x="69" y="572"/>
      <point x="69" y="526" type="curve" smooth="yes"/>
      <point x="69" y="480"/>
      <point x="96" y="434"/>
      <point x="149" y="401" type="curve"/>
      <point x="460" y="164" type="line"/>
      <point x="471" y="159"/>
      <point x="482" y="156"/>
    </contour>
  </outline>
</glyph>
<glyph name="guilsinglright" format="1">
  <advance width="600"/>
  <unicode hex="203A"/>
  <outline>
    <contour>
      <point x="110" y="156" type="curve" smooth="yes"/>
      <point x="119" y="156"/>
      <point x="130" y="158"/>
      <point x="141" y="163" type="curve"/>
      <point x="452" y="400" type="line"/>
      <point x="504" y="432"/>
      <point x="532" y="479"/>
      <point x="532" y="525" type="curve" smooth="yes"/>
      <point x="532" y="571"/>
      <point x="505" y="617"/>
      <point x="452" y="650" type="curve"/>
      <point x="141" y="887" type="line"/>
      <point x="130" y="892"/>
      <point x="119" y="895"/>
      <point x="110" y="895" type="curve" smooth="yes"/>
      <point x="86" y="895"/>
      <point x="70" y="878"/>
      <point x="70" y="858" type="curve" smooth="yes"/>
      <point x="70" y="845"/>
      <point x="76" y="831"/>
      <point x="90" y="818" type="curve"/>
      <point x="299" y="525" type="line"/>
      <point x="90" y="232" type="line"/>
      <point x="76" y="219"/>
      <point x="70" y="205"/>
      <point x="70" y="192" type="curve" smooth="yes"/>
      <point x="70" y="172"/>
      <point x="86" y="156"/>
    </contour>
  </outline>
</glyph>
<glyph name="Euro" format="1">
  <advance width="1427"/>
  <unicode hex="20AC"/>
  <outline>
    <contour>
      <point x="881" y="-33" type="curve" smooth="yes"/>
      <point x="1109" y="-33"/>
      <point x="1302" y="68"/>
      <point x="1302" y="68" type="curve"/>
      <point x="1302" y="355" type="line"/>
      <point x="1193" y="276"/>
      <point x="1049" y="228"/>
      <point x="912" y="228" type="curve" smooth="yes"/>
      <point x="767" y="228"/>
      <point x="632" y="282"/>
      <point x="564" y="409" type="curve"/>
      <point x="907" y="409" type="line"/>
      <point x="907" y="557" type="line"/>
      <point x="520" y="557" type="line"/>
      <point x="517" y="578"/>
      <point x="516" y="599"/>
      <point x="516" y="622" type="curve" smooth="yes"/>
      <point x="516" y="633"/>
      <point x="516" y="644"/>
      <point x="517" y="654" type="curve"/>
      <point x="907" y="654" type="line"/>
      <point x="907" y="802" type="line"/>
      <point x="548" y="802" type="line"/>
      <point x="610" y="953"/>
      <point x="755" y="1014"/>
      <point x="912" y="1014" type="curve" smooth="yes"/>
      <point x="1049" y="1014"/>
      <point x="1193" y="966"/>
      <point x="1302" y="887" type="curve"/>
      <point x="1302" y="1174" type="line"/>
      <point x="1302" y="1174"/>
      <point x="1109" y="1275"/>
      <point x="881" y="1275" type="curve" smooth="yes"/>
      <point x="554" y="1275"/>
      <point x="299" y="1099"/>
      <point x="227" y="802" type="curve"/>
      <point x="112" y="802" type="line"/>
      <point x="112" y="654" type="line"/>
      <point x="207" y="654" type="line"/>
      <point x="206" y="643"/>
      <point x="206" y="633"/>
      <point x="206" y="622" type="curve" smooth="yes"/>
      <point x="206" y="600"/>
      <point x="207" y="578"/>
      <point x="209" y="557" type="curve"/>
      <point x="112" y="557" type="line"/>
      <point x="112" y="409" type="line"/>
      <point x="236" y="409" type="line"/>
      <point x="319" y="132"/>
      <point x="567" y="-33"/>
    </contour>
  </outline>
</glyph>
<glyph name="minus" format="1">
  <advance width="983"/>
  <unicode hex="2212"/>
  <outline>
    <contour>
      <point x="878" y="649" type="line"/>
      <point x="103" y="649" type="line"/>
      <point x="103" y="481" type="line"/>
      <point x="878" y="481" type="line"/>
    </contour>
  </outline>
</glyph>
<glyph name="integral" format="1">
  <advance width="1089"/>
  <unicode hex="222B"/>
  <outline>
    <contour>
      <point x="311" y="-325" type="curve" smooth="yes"/>
      <point x="477" y="-325"/>
      <point x="603" y="-222"/>
      <point x="627" y="0" type="curve" smooth="yes"/>
      <point x="726" y="942" type="line" smooth="yes"/>
      <point x="736" y="1033"/>
      <point x="804" y="1061"/>
      <point x="874" y="1061" type="curve" smooth="yes"/>
      <point x="916" y="1061"/>
      <point x="959" y="1051"/>
      <point x="990" y="1039" type="curve"/>
      <point x="1010" y="1227" type="line"/>
      <point x="1010" y="1227"/>
      <point x="912" y="1269"/>
      <point x="810" y="1269" type="curve" smooth="yes"/>
      <point x="591" y="1269"/>
      <point x="468" y="1152"/>
      <point x="447" y="942" type="curve" smooth="yes"/>
      <point x="350" y="-20" type="line" smooth="yes"/>
      <point x="342" y="-101"/>
      <point x="291" y="-125"/>
      <point x="237" y="-125" type="curve" smooth="yes"/>
      <point x="170" y="-125"/>
      <point x="98" y="-90"/>
      <point x="85" y="-83" type="curve"/>
      <point x="66" y="-263" type="line"/>
      <point x="152" y="-304"/>
      <point x="236" y="-325"/>
    </contour>
  </outline>
</glyph>
<glyph name="approxequal" format="1">
  <advance width="1006"/>
  <unicode hex="2248"/>
  <outline>
    <contour>
      <point x="731.0" y="263.0" type="curve" smooth="yes"/>
      <point x="907.0" y="263.0"/>
      <point x="936.0" y="359.0"/>
      <point x="940.0" y="541.0" type="curve"/>
      <point x="812.0" y="541.0" type="line"/>
      <point x="799.0" y="467.0"/>
      <point x="797.0" y="405.0"/>
      <point x="727.0" y="405.0" type="curve" smooth="yes"/>
      <point x="623.0" y="405.0"/>
      <point x="454.0" y="555.0"/>
      <point x="298.0" y="555.0" type="curve" smooth="yes"/>
      <point x="122.0" y="555.0"/>
      <point x="73.0" y="459.0"/>
      <point x="69.0" y="277.0" type="curve"/>
      <point x="197.0" y="277.0" type="line"/>
      <point x="210.0" y="357.0"/>
      <point x="218.0" y="412.0"/>
      <point x="300.0" y="412.0" type="curve" smooth="yes"/>
      <point x="421.0" y="412.0"/>
      <point x="577.0" y="263.0"/>
    </contour>
    <contour>
      <point x="731.0" y="595.0" type="curve" smooth="yes"/>
      <point x="907.0" y="595.0"/>
      <point x="936.0" y="691.0"/>
      <point x="940.0" y="873.0" type="curve"/>
      <point x="812.0" y="873.0" type="line"/>
      <point x="799.0" y="799.0"/>
      <point x="797.0" y="737.0"/>
      <point x="727.0" y="737.0" type="curve" smooth="yes"/>
      <point x="623.0" y="737.0"/>
      <point x="454.0" y="887.0"/>
      <point x="298.0" y="887.0" type="curve" smooth="yes"/>
      <point x="122.0" y="887.0"/>
      <point x="73.0" y="791.0"/>
      <point x="69.0" y="609.0" type="curve"/>
      <point x="197.0" y="609.0" type="line"/>
      <point x="210.0" y="689.0"/>
      <point x="218.0" y="744.0"/>
      <point x="300.0" y="744.0" type="curve" smooth="yes"/>
      <point x="421.0" y="744.0"/>
      <point x="577.0" y="595.0"/>
    </contour>
  </outline>
</glyph>
<glyph name="lessequal" format="1">
  <advance width="1082"/>
  <unicode hex="2264"/>
  <outline>
    <contour>
      <point x="142" y="0" type="line"/>
      <point x="957" y="0" type="line"/>
      <point x="957" y="168" type="line"/>
      <point x="142" y="168" type="line"/>
    </contour>
    <contour>
      <point x="957" y="257" type="line"/>
      <point x="957" y="510" type="line"/>
      <point x="565" y="676" type="line"/>
      <point x="957" y="845" type="line"/>
      <point x="957" y="1075" type="line"/>
      <point x="102" y="676" type="line"/>
    </contour>
  </outline>
</glyph>
<glyph name="greaterequal" format="1">
  <advance width="1082"/>
  <unicode hex="2265"/>
  <outline>
    <contour>
      <point x="126" y="0" type="line"/>
      <point x="941" y="0" type="line"/>
      <point x="941" y="168" type="line"/>
      <point x="126" y="168" type="line"/>
    </contour>
    <contour>
      <point x="126" y="1075" type="line"/>
      <point x="126" y="845" type="line"/>
      <point x="518" y="676" type="line"/>
      <point x="126" y="510" type="line"/>
      <point x="126" y="257" type="line"/>
      <point x="981" y="676" type="line"/>
    </contour>
  </outline>
</glyph>
<glyph name="lozenge" format="1">
  <advance width="996"/>
  <unicode hex="25CA"/>
  <outline>
    <contour>
      <point x="497" y="-26" type="line"/>
      <point x="873" y="616" type="line"/>
      <point x="497" y="1258" type="line"/>
      <point x="121" y="616" type="line"/>
    </contour>
    <contour>
      <point x="497" y="328" type="line"/>
      <point x="340" y="616" type="line"/>
      <point x="497" y="904" type="line"/>
      <point x="652" y="616" type="line"/>
    </contour>
  </outline>
</glyph>
<glyph name="uniFB00" format="1">
  <advance width="1345"/>
  <outline>
    <contour>
      <point x="215" y="0" type="line"/>
      <point x="491" y="0" type="line"/>
      <point x="491" y="659" type="line"/>
      <point x="834" y="659" type="line"/>
      <point x="834" y="0" type="line"/>
      <point x="1110" y="0" type="line"/>
      <point x="1110" y="659" type="line"/>
      <point x="1341" y="659" type="line"/>
      <point x="1341" y="876" type="line"/>
      <point x="1110" y="876" type="line"/>
      <point x="1110" y="942" type="line" smooth="yes"/>
      <point x="1110" y="1002"/>
      <point x="1154" y="1019"/>
      <point x="1205" y="1019" type="curve" smooth="yes"/>
      <point x="1277" y="1019"/>
      <point x="1341" y="985"/>
      <point x="1341" y="985" type="curve"/>
      <point x="1341" y="1227" type="line"/>
      <point x="1341" y="1227"/>
      <point x="1261" y="1269"/>
      <point x="1159" y="1269" type="curve" smooth="yes"/>
      <point x="940" y="1269"/>
      <point x="831" y="1152"/>
      <point x="831" y="942" type="curve" smooth="yes"/>
      <point x="831" y="876" type="line"/>
      <point x="491" y="876" type="line"/>
      <point x="491" y="942" type="line" smooth="yes"/>
      <point x="491" y="1002"/>
      <point x="535" y="1019"/>
      <point x="586" y="1019" type="curve" smooth="yes"/>
      <point x="658" y="1019"/>
      <point x="713" y="985"/>
      <point x="713" y="985" type="curve"/>
      <point x="713" y="1227" type="line"/>
      <point x="713" y="1227"/>
      <point x="642" y="1269"/>
      <point x="540" y="1269" type="curve" smooth="yes"/>
      <point x="321" y="1269"/>
      <point x="212" y="1152"/>
      <point x="212" y="942" type="curve" smooth="yes"/>
      <point x="212" y="876" type="line"/>
      <point x="65" y="876" type="line"/>
      <point x="65" y="659" type="line"/>
      <point x="215" y="659" type="line"/>
    </contour>
  </outline>
</glyph>
<glyph name="uniFB03" format="1">
  <advance width="1920"/>
  <outline>
    <contour>
      <point x="1477" y="1051"/>
      <point x="1540" y="970"/>
      <point x="1646" y="970" type="curve" smooth="yes"/>
      <point x="1752" y="970"/>
      <point x="1814" y="1052"/>
      <point x="1814" y="1135" type="curve" smooth="yes"/>
      <point x="1814" y="1215"/>
      <point x="1753" y="1300"/>
      <point x="1646" y="1300" type="curve" smooth="yes"/>
      <point x="1539" y="1300"/>
      <point x="1477" y="1216"/>
      <point x="1477" y="1135" type="curve" smooth="yes"/>
    </contour>
    <contour>
      <point x="491" y="659" type="line"/>
      <point x="846" y="659" type="line"/>
      <point x="846" y="0" type="line"/>
      <point x="1122" y="0" type="line"/>
      <point x="1122" y="659" type="line"/>
      <point x="1509" y="659" type="line"/>
      <point x="1509" y="0" type="line"/>
      <point x="1782" y="0" type="line"/>
      <point x="1782" y="876" type="line"/>
      <point x="1122" y="876" type="line"/>
      <point x="1122" y="942" type="line" smooth="yes"/>
      <point x="1122" y="1002"/>
      <point x="1166" y="1019"/>
      <point x="1217" y="1019" type="curve" smooth="yes"/>
      <point x="1289" y="1019"/>
      <point x="1353" y="985"/>
      <point x="1353" y="985" type="curve"/>
      <point x="1353" y="1227" type="line"/>
      <point x="1353" y="1227"/>
      <point x="1273" y="1269"/>
      <point x="1171" y="1269" type="curve" smooth="yes"/>
      <point x="952" y="1269"/>
      <point x="843" y="1152"/>
      <point x="843" y="942" type="curve" smooth="yes"/>
      <point x="843" y="876" type="line"/>
      <point x="491" y="876" type="line"/>
      <point x="491" y="942" type="line" smooth="yes"/>
      <point x="491" y="1002"/>
      <point x="535" y="1019"/>
      <point x="586" y="1019" type="curve" smooth="yes"/>
      <point x="658" y="1019"/>
      <point x="713" y="985"/>
      <point x="713" y="985" type="curve"/>
      <point x="713" y="1227" type="line"/>
      <point x="713" y="1227"/>
      <point x="642" y="1269"/>
      <point x="540" y="1269" type="curve" smooth="yes"/>
      <point x="321" y="1269"/>
      <point x="212" y="1152"/>
      <point x="212" y="942" type="curve" smooth="yes"/>
      <point x="212" y="876" type="line"/>
      <point x="65" y="876" type="line"/>
      <point x="65" y="659" type="line"/>
      <point x="215" y="659" type="line"/>
      <point x="215" y="0" type="line"/>
      <point x="491" y="0" type="line"/>
    </contour>
  </outline>
</glyph>
